<svg width="24" height="24" viewBox="0 0 24 24" fill="none" xmlns="http://www.w3.org/2000/svg">
<mask id="mask0_271_2868" style="mask-type:alpha" maskUnits="userSpaceOnUse" x="4" y="4" width="16" height="16">
<rect x="4" y="4" width="16" height="16" fill="#D9D9D9"/>
</mask>
<g mask="url(#mask0_271_2868)">
<path d="M7.38119 18.1355C6.96137 18.1355 6.60364 17.9877 6.30799 17.6921C6.01233 17.3964 5.8645 17.0387 5.8645 16.6189V7.38118C5.8645 6.96137 6.01233 6.60364 6.30799 6.30799C6.60364 6.01233 6.96137 5.8645 7.38119 5.8645H12V7.38118H7.38119V16.6189H16.6189V12H18.1355V16.6189C18.1355 17.0387 17.9877 17.3964 17.6921 17.6921C17.3964 17.9877 17.0387 18.1355 16.6189 18.1355H7.38119ZM10.5902 14.4667L9.53335 13.4098L15.562 7.38118H13.3334V5.8645H18.1355V10.6667H16.6189V8.43807L10.5902 14.4667Z" fill="#1C1B1F"/>
</g>
</svg>
