<svg width="24" height="24" viewBox="0 0 24 24" fill="none" xmlns="http://www.w3.org/2000/svg">
<mask id="mask0_35_178" style="mask-type:alpha" maskUnits="userSpaceOnUse" x="0" y="0" width="24" height="24">
<rect width="24" height="24" fill="#D9D9D9"/>
</mask>
<g mask="url(#mask0_35_178)">
<path d="M7.6 20C7.16 20 6.78333 19.8433 6.47 19.53C6.15667 19.2167 6 18.84 6 18.4V5.6C6 5.16 6.15667 4.78333 6.47 4.47C6.78333 4.15667 7.16 4 7.6 4H14.8L18.8 8V18.4C18.8 18.84 18.6433 19.2167 18.33 19.53C18.0167 19.8433 17.64 20 17.2 20H7.6ZM7.6 18.4H17.2V8.8H14V5.6H7.6V18.4ZM12.4 17.6C13.2933 17.6 14.05 17.2867 14.67 16.66C15.29 16.0333 15.6 15.28 15.6 14.4V11.2H14V14.4C14 14.84 13.8467 15.2167 13.54 15.53C13.2333 15.8433 12.8533 16 12.4 16C11.96 16 11.5833 15.8433 11.27 15.53C10.9567 15.2167 10.8 14.84 10.8 14.4V10C10.8 9.88 10.84 9.78333 10.92 9.71C11 9.63667 11.0933 9.6 11.2 9.6C11.32 9.6 11.4167 9.63667 11.49 9.71C11.5633 9.78333 11.6 9.88 11.6 10V14.4H13.2V10C13.2 9.44 13.0067 8.96667 12.62 8.58C12.2333 8.19333 11.76 8 11.2 8C10.64 8 10.1667 8.19333 9.78 8.58C9.39333 8.96667 9.2 9.44 9.2 10V14.4C9.2 15.28 9.51333 16.0333 10.14 16.66C10.7667 17.2867 11.52 17.6 12.4 17.6Z" fill="#0B0B0B"/>
</g>
</svg>
