<svg width="96" height="72" viewBox="0 0 96 72" fill="none" xmlns="http://www.w3.org/2000/svg">
<path d="M17.4305 37.7348C17.0409 36.2679 16.7441 34.8148 16.5562 33.3334C16.3598 31.7858 16.3351 30.237 16.3616 28.6846C16.385 27.3131 16.551 25.953 16.7957 24.6046C17.137 22.723 17.6324 20.8835 18.3458 19.1089C18.9967 17.4899 19.7606 15.9306 20.6705 14.4393C22.1347 12.0399 23.9272 9.91982 25.9745 8.02345C27.7211 6.40554 29.6456 5.02719 31.7311 3.87542C33.2935 3.01255 34.9083 2.2752 36.5888 1.69548C38.3538 1.08659 40.163 0.649317 42.0109 0.3577C44.0161 0.0412504 46.0294 -0.0433407 48.0498 0.0191828C49.1668 0.0537523 50.2793 0.182635 51.3887 0.342007C53.0049 0.574198 54.5827 0.959794 56.1407 1.44155C57.3962 1.82979 58.6217 2.29944 59.8121 2.85785C61.6162 3.70414 63.3329 4.70661 64.9477 5.88121C65.8773 6.55744 66.7584 7.29506 67.6116 8.06966C68.4141 8.79829 69.1778 9.56328 69.8851 10.3841C70.7146 11.3468 71.4859 12.3541 72.2066 13.406C73.0309 14.6093 73.7431 15.8731 74.3759 17.1836C75.5272 19.5678 76.3137 22.0723 76.806 24.6801C77.239 26.973 77.3113 29.2863 77.2096 31.6005C77.111 33.8424 76.6931 36.0426 76.0499 38.1973C75.5772 39.7807 74.9813 41.3154 74.2543 42.7913C73.2523 44.8257 72.0254 46.7181 70.5799 48.4661C69.8354 49.3664 69.0642 50.2389 68.2228 51.0453C66.797 52.412 65.2539 53.6268 63.6006 54.7049C61.9754 55.7647 60.2591 56.6445 58.4747 57.3791C56.6915 58.1131 54.8465 58.6626 52.9496 59.0243C51.6752 59.2673 50.3966 59.4456 49.1006 59.5392C47.7387 59.6375 46.375 59.6469 45.02 59.5785C41.7348 59.4128 38.5532 58.6941 35.4818 57.4985C33.9683 56.9093 32.5085 56.1997 31.1129 55.3655C29.5355 54.4226 28.0452 53.3549 26.6489 52.1486C24.4405 50.2407 22.5453 48.0589 20.9705 45.5965C19.4664 43.2446 18.2941 40.7329 17.5287 38.0347C17.5027 37.9429 17.4684 37.8535 17.4305 37.7348Z" fill="#D6D6D6"/>
<path d="M68.344 69.8736C68.3439 70.2568 68.3381 70.6042 68.3456 70.9513C68.3521 71.254 68.4051 71.546 68.6348 71.8038C68.3769 71.8654 68.1365 71.8315 67.8428 71.8256C68.1091 71.5113 68.133 71.1702 68.1313 70.8139C68.1241 69.329 68.126 67.844 68.13 66.3591C68.1308 66.0517 68.087 65.7648 67.8727 65.5252C68.4906 65.3955 68.4933 65.3977 68.7798 65.9208C69.573 67.3688 70.3665 68.8167 71.1626 70.2632C71.2116 70.3522 71.2315 70.4685 71.3613 70.5214C72.0688 69.0862 72.775 67.6539 73.4808 66.2215C73.5229 66.1361 73.5607 66.0486 73.6034 65.9635C73.8685 65.4356 73.8687 65.4357 74.5123 65.5068C74.2657 65.8432 74.2418 66.2229 74.2436 66.6151C74.2501 68.0042 74.249 69.3934 74.2442 70.7825C74.243 71.1445 74.284 71.4896 74.5364 71.8156C74.0913 71.8156 73.6845 71.8156 73.2345 71.8156C73.5006 71.5094 73.5223 71.1635 73.5211 70.8059C73.5163 69.4676 73.5191 68.1293 73.4598 66.7697C73.2461 67.2005 73.0314 67.6307 72.8189 68.0621C72.3207 69.0734 71.8251 70.086 71.324 71.0959C71.2698 71.205 71.2605 71.3633 71.087 71.3745C70.8928 71.387 70.87 71.2151 70.8048 71.0992C70.0716 69.7963 69.3426 68.4911 68.6118 67.1868C68.5484 67.0736 68.4803 66.963 68.344 66.8559C68.344 67.8498 68.344 68.8438 68.344 69.8736Z" fill="#0B0B0B"/>
<path d="M95.2162 71.1507C95.3751 71.4341 95.5722 71.6284 95.8798 71.6715C95.9388 71.6798 96.0101 71.6754 95.9985 71.7596C95.984 71.8645 95.8987 71.8308 95.8315 71.8288C95.1577 71.8093 94.6276 71.5441 94.2802 70.9362C94.0728 70.5732 93.9444 70.1769 93.7716 69.7996C93.4254 69.0442 92.8972 68.7594 92.0832 68.8659C91.9562 68.8826 91.9283 68.9276 91.9293 69.0414C91.9349 69.7593 91.9328 70.4773 91.9415 71.1951C91.9442 71.4159 92.046 71.6062 92.214 71.8106C91.772 71.8106 91.3682 71.8106 90.9237 71.8106C91.2099 71.4672 91.1848 71.0661 91.1839 70.6667C91.1807 69.2426 91.1803 67.8186 91.1844 66.3945C91.1853 66.0769 91.1576 65.7738 90.8684 65.4702C91.9036 65.5228 92.8746 65.3573 93.8263 65.5765C94.743 65.7876 95.2359 66.4231 95.2187 67.2602C95.2054 67.901 94.7228 68.4848 94.0045 68.7269C93.9092 68.759 93.812 68.7854 93.6346 68.8389C94.5165 69.2157 94.7928 69.9622 95.0415 70.7301C95.0854 70.8655 95.1508 70.9938 95.2162 71.1507Z" fill="#0B0B0B"/>
<path d="M10.8356 68.8375C11.4786 69.109 11.8394 69.5578 11.8033 70.253C11.7688 70.918 11.359 71.2974 10.7758 71.5314C10.3871 71.6873 9.98335 71.7868 9.57211 71.7991C8.78153 71.8227 7.98976 71.806 7.16213 71.806C7.44057 71.4661 7.42239 71.0666 7.42098 70.6658C7.41602 69.2529 7.41501 67.84 7.42198 66.4272C7.42361 66.0962 7.38768 65.7857 7.12793 65.4773C8.14109 65.5112 9.11207 65.3693 10.0574 65.676C10.7571 65.903 11.1481 66.339 11.1733 66.9059C11.2102 67.7336 10.9749 68.1128 10.2115 68.4695C10.1559 68.4954 10.0668 68.494 10.0542 68.603C10.3059 68.6768 10.5585 68.7508 10.8356 68.8375Z" fill="#0B0B0B"/>
<path d="M18.1065 68.2204C18.1065 67.5979 18.1019 67.0112 18.1084 66.4247C18.1121 66.0943 18.0737 65.7813 17.7874 65.4705C18.8074 65.5201 19.7636 65.3804 20.7109 65.5658C21.163 65.6542 21.5549 65.882 21.8356 66.2575C22.4222 67.0418 22.1996 68.2743 20.9202 68.7252C20.8228 68.7596 20.7222 68.7846 20.5407 68.8384C21.4234 69.2004 21.6979 69.9486 21.9562 70.7136C22.1065 71.1586 22.2705 71.6042 22.8302 71.6729C22.8903 71.6802 22.9152 71.7135 22.9085 71.7654C22.8973 71.851 22.8305 71.8324 22.7724 71.8308C22.0848 71.8118 21.5429 71.5422 21.1895 70.9214C20.9826 70.5579 20.8559 70.1605 20.6822 69.7833C20.2619 68.8701 19.7542 68.8568 18.9851 68.8655C18.8446 68.867 18.8397 68.943 18.8401 69.0473C18.843 69.7536 18.8378 70.46 18.8483 71.1661C18.8518 71.3963 18.9546 71.601 19.124 71.8104C18.6896 71.8104 18.2843 71.8104 17.8261 71.8104C18.1246 71.4651 18.1114 71.0648 18.1083 70.6625C18.1022 69.8605 18.1065 69.0584 18.1065 68.2204Z" fill="#0B0B0B"/>
<path d="M83.3389 67.216C83.3381 66.8329 83.3519 66.4848 83.3314 66.1388C83.3179 65.9114 83.2207 65.7018 83.032 65.4735C84.0397 65.5218 85.0113 65.3619 85.9644 65.5759C86.9647 65.8004 87.5297 66.6256 87.3321 67.5041C87.1867 68.1509 86.7246 68.5001 86.1475 68.7259C86.0491 68.7644 85.9442 68.7859 85.7769 68.834C86.6541 69.2149 86.9404 69.9767 87.1954 70.7703C87.348 71.2454 87.5798 71.6685 88.1508 71.7007C88.1318 71.8535 88.0537 71.8314 87.9842 71.8302C87.2425 71.8184 86.6893 71.4861 86.3548 70.8168C86.1747 70.4566 86.0434 70.0717 85.8679 69.7089C85.4636 68.8726 84.9573 68.853 84.1967 68.8684C84.0502 68.8713 84.0629 68.9677 84.063 69.0636C84.0636 69.7461 84.0595 70.4286 84.0677 71.111C84.0707 71.3651 84.1771 71.5909 84.3448 71.819C83.9101 71.819 83.5024 71.819 83.0514 71.819C83.3098 71.4953 83.3458 71.1439 83.3426 70.7721C83.3326 69.5988 83.3389 68.4253 83.3389 67.216Z" fill="#0B0B0B"/>
<path d="M53.7597 69.3709C53.7598 68.3898 53.7588 67.4446 53.7603 66.4994C53.7608 66.1479 53.7014 65.8147 53.4497 65.4745C54.4542 65.519 55.4207 65.368 56.372 65.5756C56.9744 65.7071 57.4581 66.0478 57.6824 66.66C57.9944 67.5114 57.5052 68.4008 56.564 68.7242C56.4639 68.7586 56.3602 68.7822 56.1815 68.8322C57.1019 69.234 57.3592 70.0522 57.637 70.8622C57.7714 71.2542 57.9643 71.6093 58.4352 71.6715C58.4873 71.6784 58.5327 71.6938 58.5259 71.7518C58.5131 71.8606 58.4273 71.8272 58.3617 71.8253C57.7304 71.8074 57.2226 71.5646 56.8745 71.0111C56.658 70.6668 56.5252 70.2856 56.368 69.9147C56.0055 69.0592 55.5659 68.7974 54.6535 68.8626C54.4821 68.8748 54.4694 68.944 54.4703 69.0807C54.4748 69.7507 54.4696 70.4208 54.4741 71.0907C54.4759 71.3554 54.5677 71.5929 54.7731 71.8208C54.3208 71.8208 53.9133 71.8208 53.4895 71.8208C53.9403 71.0471 53.6968 70.2104 53.7597 69.3709Z" fill="#0B0B0B"/>
<path d="M36.3096 71.8355C35.6413 71.8378 35.0057 71.8378 34.3054 71.8378C34.6166 71.4431 34.5809 71.0259 34.5805 70.6141C34.5791 69.2148 34.5788 67.8155 34.5806 66.4162C34.581 66.1018 34.5634 65.7947 34.2808 65.4778C34.5291 65.4778 34.7077 65.4721 34.8858 65.4788C35.5816 65.5047 36.283 65.4058 36.9732 65.5513C38.5254 65.8784 39.592 67.223 39.487 68.7583C39.3662 70.5239 38.1632 71.7165 36.484 71.8228C36.4368 71.8258 36.3896 71.8297 36.3096 71.8355Z" fill="#0B0B0B"/>
<path d="M81.8962 67.6029C82.2313 68.9388 82.0355 70.142 81.0561 71.0977C80.0426 72.0867 78.7984 72.2023 77.5267 71.7358C76.325 71.2951 75.721 70.3379 75.5851 69.0672C75.4561 67.8606 75.7773 66.8146 76.7151 66.0249C78.137 64.8276 81.1392 65.0392 81.8962 67.6029Z" fill="#0B0B0B"/>
<path d="M43.0231 68.5804C43.0231 67.79 43.0169 67.0354 43.0263 66.281C43.03 65.9919 42.9694 65.7372 42.7095 65.4673C43.7214 65.5276 44.6802 65.3509 45.6176 65.5739C46.5686 65.8001 47.1459 66.6584 47.0773 67.628C47.011 68.5666 46.2777 69.3273 45.3235 69.4502C44.8987 69.5049 44.4717 69.4984 44.0457 69.4881C43.8317 69.483 43.7181 69.52 43.7407 69.7771C43.7836 70.2638 43.6975 70.7549 43.7944 71.2433C43.8346 71.4456 43.92 71.6195 44.0402 71.8186C43.5997 71.8186 43.1932 71.8186 42.7432 71.8186C42.9802 71.5547 43.0329 71.2686 43.0275 70.9517C43.0142 70.1735 43.0231 69.3948 43.0231 68.5804Z" fill="#0B0B0B"/>
<path d="M13.5883 65.4783C14.5823 65.4784 15.5417 65.4931 16.5002 65.4704C16.8029 65.4632 16.8999 65.5491 16.8562 65.8425C16.8361 65.9769 16.8528 66.1169 16.8167 66.2927C16.5625 65.6639 16.0579 65.6739 15.537 65.6923C15.064 65.7091 14.5897 65.7044 14.1164 65.6922C13.8861 65.6862 13.7937 65.7787 13.7946 66.0051C13.7977 66.783 13.799 67.5609 13.7915 68.3388C13.79 68.4996 13.8473 68.5402 13.9964 68.5376C14.4935 68.5291 14.9909 68.536 15.4881 68.5299C15.7861 68.5262 16.0261 68.3843 16.2591 68.0851C16.2591 68.4849 16.2591 68.7922 16.2591 69.1626C15.7569 68.5898 15.1251 68.7744 14.5398 68.7597C13.7952 68.7409 13.7948 68.7551 13.7948 69.5163C13.7948 70.0908 13.8042 70.6655 13.791 71.2397C13.7845 71.5202 13.8828 71.6181 14.1649 71.6077C14.7089 71.5875 15.2555 71.577 15.7983 71.609C16.2933 71.6382 16.6888 71.5354 16.951 71.0396C16.951 71.2614 16.9494 71.4833 16.9516 71.7051C16.9527 71.8204 16.887 71.8395 16.7913 71.8394C15.4689 71.838 14.1464 71.8384 12.7654 71.8384C13.0701 71.4208 13.071 70.9853 13.0698 70.5464C13.0663 69.2538 13.0667 67.9613 13.0697 66.6687C13.0707 66.2625 13.0442 65.8653 12.7743 65.4783C13.0625 65.4783 13.3079 65.4783 13.5883 65.4783Z" fill="#0B0B0B"/>
<path d="M47.8787 69.4537C48.4445 68.1855 48.9936 66.9389 49.5428 65.6923C49.5892 65.5872 49.6076 65.4673 49.7751 65.4734C49.95 65.4797 49.941 65.6235 49.9837 65.7197C50.7673 67.4837 51.5499 69.2481 52.323 71.0168C52.4488 71.3045 52.6106 71.5585 52.8602 71.8113C52.3874 71.8113 51.951 71.8113 51.501 71.8113C51.7852 71.2586 51.3797 70.8465 51.2178 70.3831C51.1718 70.2512 51.0987 70.3248 51.0231 70.3551C50.5823 70.5321 50.1524 70.4852 49.7149 70.3168C49.1753 70.1091 48.6288 69.8973 48.0334 70.0911C47.9667 70.1128 47.8877 70.1222 47.8376 70.165C47.5867 70.3794 47.2767 71.5109 47.3825 71.8188C47.1477 71.8188 46.9167 71.8188 46.6787 71.8188C47.2705 71.1239 47.486 70.2581 47.8787 69.4537Z" fill="#0B0B0B"/>
<path d="M28.1632 71.4521C28.1289 71.6013 28.221 71.6961 28.2514 71.8214C28.0005 71.8214 27.7707 71.8214 27.5256 71.8214C28.1382 71.1225 28.3588 70.2445 28.7293 69.447C29.2936 68.2325 29.8125 66.9964 30.3591 65.7733C30.4097 65.6601 30.3968 65.4777 30.6063 65.4749C30.8158 65.4721 30.8121 65.6563 30.8613 65.7671C31.6301 67.4994 32.3903 69.2356 33.1489 70.9724C33.2828 71.2789 33.4475 71.5618 33.7268 71.8197C33.238 71.8197 32.7935 71.8197 32.3191 71.8197C32.5775 71.4153 32.3599 71.0751 32.2236 70.7198C32.1162 70.4398 32.043 70.2408 31.6483 70.4129C31.2318 70.5945 30.7956 70.4149 30.383 70.2512C29.8943 70.0573 29.3956 69.9299 28.8642 70.0891C28.7372 70.1271 28.65 70.1833 28.6051 70.3028C28.4639 70.679 28.2488 71.0256 28.1632 71.4521Z" fill="#0B0B0B"/>
<path d="M63.9024 71.8371C63.8201 71.8187 63.6912 71.8643 63.7493 71.7462C64.016 71.2046 63.5848 70.8251 63.4514 70.3777C63.4241 70.2858 63.3532 70.3055 63.2793 70.3396C62.7636 70.5777 62.2715 70.4508 61.7748 70.2542C61.2991 70.066 60.8106 69.9193 60.2916 70.0864C60.2355 70.1045 60.1701 70.1038 60.1214 70.1329C59.8459 70.2977 59.4948 71.5121 59.6367 71.8246C59.3989 71.8246 59.1666 71.8246 58.9219 71.8246C59.5503 71.0369 59.8141 70.0823 60.2223 69.2029C60.7512 68.0634 61.2304 66.9004 61.7418 65.7525C61.7912 65.6418 61.8005 65.4605 62.0109 65.4738C62.2025 65.486 62.1825 65.6493 62.2288 65.7538C62.9745 67.4345 63.7127 69.1185 64.4558 70.8004C64.614 71.1586 64.7647 71.5236 65.1415 71.8372C64.6843 71.8372 64.309 71.8372 63.9024 71.8371Z" fill="#0B0B0B"/>
<path d="M24.6595 65.6958C24.4601 65.6956 24.2932 65.7078 24.1287 65.6934C23.627 65.6493 23.1865 65.7249 22.9848 66.2845C22.9397 66.2386 22.9136 66.2247 22.9131 66.2099C22.8884 65.4776 22.8886 65.478 23.6106 65.4781C24.9371 65.4784 26.2638 65.4887 27.59 65.4699C27.8912 65.4656 27.9914 65.5485 27.9474 65.8433C27.9272 65.9787 27.9439 66.1198 27.9439 66.2563C27.766 66.285 27.7916 66.1398 27.7453 66.0758C27.5749 65.8398 27.3709 65.6876 27.0666 65.6948C26.747 65.7025 26.4267 65.7065 26.1075 65.6921C25.8949 65.6826 25.801 65.7794 25.7839 65.9764C25.7736 66.0953 25.769 66.2151 25.7689 66.3345C25.7681 67.7711 25.7721 69.2078 25.7666 70.6444C25.765 71.0519 25.7808 71.4497 26.0563 71.8191C25.6101 71.8191 25.2044 71.8191 24.7539 71.8191C25.0083 71.5223 25.0436 71.2052 25.0418 70.8663C25.0337 69.274 25.0351 67.6817 25.041 66.0895C25.042 65.8351 24.9961 65.6587 24.6595 65.6958Z" fill="#0B0B0B"/>
<path d="M0.298369 68.437C0.298335 67.7429 0.292221 67.0847 0.300824 66.4267C0.305149 66.0959 0.26021 65.7864 0.0227575 65.4978C0.460926 65.4978 0.868286 65.4978 1.31315 65.4978C1.04918 65.8004 1.03438 66.1398 1.03511 66.4877C1.03834 68.0194 1.03554 69.5511 1.03687 71.0829C1.03732 71.5959 1.0455 71.6015 1.54856 71.6016C2.03395 71.6016 2.52028 71.5826 3.00445 71.6071C3.4969 71.6321 3.92602 71.5697 4.12183 71.0243C4.16627 71.066 4.19344 71.0794 4.19399 71.0938C4.22214 71.8387 4.2219 71.8387 3.47586 71.8388C2.34142 71.8388 1.20698 71.8388 0 71.8388C0.32023 71.4632 0.303162 71.0634 0.300003 70.6628C0.294247 69.9329 0.298369 69.2029 0.298369 68.437Z" fill="#0B0B0B"/>
<path d="M5.2309 71.8365C5.1462 71.8017 4.93844 71.8974 5.07077 71.7084C5.27131 71.422 5.26578 71.105 5.26538 70.7812C5.26361 69.3326 5.26231 67.8839 5.26637 66.4353C5.26729 66.1083 5.25147 65.7912 4.98169 65.4995C5.43396 65.4995 5.82878 65.4995 6.25005 65.4995C5.9765 65.908 5.97461 66.3676 5.97641 66.8318C5.98144 68.1247 5.98016 69.4177 5.9771 70.7107C5.97619 71.0968 6.02562 71.4669 6.28584 71.837C5.91665 71.837 5.58962 71.837 5.2309 71.8365Z" fill="#0B0B0B"/>
<path d="M89.7505 70.6565C89.7291 71.0875 89.7882 71.4657 90.0363 71.8244C89.6 71.8244 89.2019 71.8244 88.7502 71.8244C89.0332 71.492 89.0354 71.1222 89.0338 70.7448C89.0277 69.2955 89.0278 67.8461 89.034 66.3968C89.0354 66.0784 88.9913 65.7822 88.7583 65.5015C89.1969 65.5015 89.5983 65.5015 90.0285 65.5015C89.7839 65.8412 89.7465 66.2114 89.7482 66.5974C89.7542 67.9389 89.7505 69.2804 89.7505 70.6565Z" fill="#0B0B0B"/>
<path d="M27.5866 50.1894C27.0172 49.79 26.5592 49.3037 26.1015 48.8292C25.3272 48.0266 24.5934 47.1819 23.9235 46.2858C21.3973 42.9069 19.6829 39.1518 18.8621 34.9941C18.6154 33.7449 18.4938 32.4775 18.4046 31.2035C18.2854 29.5022 18.4125 27.8226 18.6206 26.1394C18.8084 24.6203 19.1283 23.1299 19.5926 21.6775C20.267 19.5677 21.152 17.551 22.3128 15.6595C23.6043 13.5552 25.1236 11.6411 26.9079 9.94774C28.6282 8.31509 30.5094 6.90016 32.5831 5.74869C34.2784 4.80732 36.0329 4.01238 37.8814 3.43294C39.5396 2.91317 41.2215 2.51162 42.9493 2.30063C44.3573 2.1287 45.7673 1.98843 47.1842 2.03338C48.8803 2.0872 50.5663 2.24801 52.2411 2.56419C54.2109 2.93607 56.1147 3.51824 57.9646 4.27457C59.4124 4.86652 60.7983 5.60037 62.1233 6.43857C63.789 7.49232 65.3311 8.7062 66.7593 10.0776C68.7373 11.977 70.3906 14.1222 71.7413 16.5132C73.2977 19.2684 74.33 22.2153 74.8609 25.3369C75.0201 26.2731 75.112 27.2222 75.1815 28.1743C75.2489 29.0963 75.2578 30.0171 75.221 30.9339C75.1665 32.2888 75.0092 33.6373 74.748 34.9718C74.4703 36.3906 74.0968 37.7807 73.602 39.1375C72.7882 41.3689 71.6875 43.4437 70.3486 45.401C69.437 46.7337 68.3655 47.9213 67.2903 49.1106C67.2267 49.1809 67.1515 49.2404 67.0599 49.3179C67.01 49.345 66.9806 49.355 66.9307 49.3749C66.9117 49.3888 66.9158 49.3896 66.9155 49.3875C66.6056 49.5868 66.2404 49.5993 65.8976 49.6773C63.6887 50.1797 61.453 50.5348 59.2097 50.8283C58.4991 50.9213 57.7695 50.9057 57.0484 50.9319C56.4929 50.952 55.9344 50.9774 55.3819 50.9772C53.6322 50.9765 51.875 50.9946 50.2353 50.1859C48.8489 49.5021 47.6902 48.5432 46.6539 47.4026C46.0855 46.777 45.6988 46.037 45.2487 45.3356C45.179 45.227 45.1169 45.1112 44.9998 44.9922C44.9174 45.1938 44.8786 45.3773 44.8354 45.5596C44.4413 47.2242 43.7178 48.6978 42.4892 49.9128C41.6586 50.7342 40.655 51.1712 39.5595 51.4373C37.9814 51.8205 36.3888 51.737 34.7938 51.5517C32.6263 51.2998 30.4812 50.9194 28.3534 50.4352C28.1003 50.3776 27.8381 50.3492 27.5866 50.1894Z" fill="white"/>
<path d="M27.573 50.1974C28.4077 50.3467 29.2527 50.5161 30.0956 50.6956C31.576 51.0108 33.0696 51.2357 34.5724 51.4092C35.7021 51.5396 36.8276 51.6461 37.9692 51.5691C41.3846 51.3386 43.3714 49.7387 44.5127 46.3314C44.6881 45.8077 44.7969 45.2613 44.9547 44.6555C45.3618 45.3237 45.6895 45.9762 46.1208 46.5489C47.7219 48.6748 49.6912 50.2852 52.3805 50.7338C53.4629 50.9144 54.5707 50.9159 55.6722 50.8529C56.4762 50.807 57.2826 50.7977 58.0866 50.782C59.5854 50.7529 61.0423 50.4418 62.5131 50.2222C63.973 50.0042 65.4124 49.6751 66.8861 49.3795C66.5337 49.9245 66.013 50.3221 65.52 50.7389C62.4966 53.2957 59.1035 55.1693 55.3246 56.3216C53.4541 56.892 51.5465 57.2556 49.6025 57.451C48.3038 57.5814 47.0027 57.6308 45.7033 57.5704C41.9372 57.3954 38.3162 56.5745 34.8669 55.009C32.2454 53.8191 29.8642 52.2569 27.6941 50.359C27.6504 50.3209 27.6193 50.268 27.573 50.1974Z" fill="#838383"/>
<path d="M66.9308 49.3893C66.9192 49.3369 66.9578 49.3322 67.0187 49.3313C67.0088 49.3511 66.9791 49.3705 66.9308 49.3893Z" fill="#838383"/>
<path d="M91.9303 66.57C91.938 65.5193 91.8586 65.7034 92.7961 65.6996C93.6693 65.696 94.3125 66.1916 94.432 66.9243C94.574 67.7944 93.9164 68.5918 92.9983 68.6417C92.6584 68.6602 92.2273 68.7602 92.0006 68.5949C91.7815 68.4351 91.9462 67.9734 91.9332 67.6449C91.9195 67.299 91.9302 66.952 91.9303 66.57Z" fill="#F5F5F5"/>
<path d="M10.4967 69.1022C11.34 69.8195 11.1548 70.9881 10.165 71.4002C9.58685 71.6409 8.98392 71.6013 8.38278 71.6002C8.20628 71.5999 8.17495 71.4714 8.17433 71.3289C8.17093 70.539 8.17002 69.7492 8.16506 68.9594C8.16429 68.8367 8.18129 68.7589 8.33334 68.7533C9.06901 68.7263 9.80156 68.7081 10.4967 69.1022Z" fill="#F5F5F5"/>
<path d="M9.90792 68.1863C9.41411 68.4956 8.88437 68.5169 8.3525 68.5385C8.18286 68.5454 8.16218 68.4646 8.16338 68.3234C8.16983 67.559 8.17528 66.7944 8.16847 66.03C8.16608 65.7609 8.2785 65.6647 8.53422 65.6899C8.81407 65.7175 9.09379 65.6992 9.37466 65.7725C9.89601 65.9085 10.2709 66.1715 10.3904 66.7328C10.5121 67.3048 10.4086 67.7978 9.90792 68.1863Z" fill="#F5F5F5"/>
<path d="M20.3121 65.7819C21.1167 66.1254 21.4788 66.7173 21.3403 67.4192C21.1917 68.173 20.5841 68.6481 19.7449 68.6483C19.4532 68.6484 19.0708 68.7794 18.8938 68.5951C18.7183 68.4123 18.8477 68.0279 18.844 67.7323C18.8369 67.1708 18.8497 66.609 18.8415 66.0475C18.8377 65.7891 18.9331 65.6722 19.1966 65.6937C19.5587 65.7232 19.9294 65.6379 20.3121 65.7819Z" fill="#F5F5F5"/>
<path d="M86.2694 68.0833C85.6812 68.7551 84.9155 68.6532 84.1755 68.6492C84.0517 68.6485 84.064 68.552 84.0641 68.4696C84.0644 67.6449 84.0623 66.8202 84.0689 65.9956C84.0701 65.85 84.1075 65.6923 84.3009 65.6991C84.6877 65.7126 85.076 65.6473 85.461 65.7642C86.5476 66.094 86.9161 67.1095 86.2694 68.0833Z" fill="#F4F4F4"/>
<path d="M54.9788 65.6946C55.293 65.7172 55.573 65.6696 55.8553 65.7589C56.6877 66.0223 57.0776 66.6015 56.9658 67.4537C56.8829 68.0862 56.213 68.6263 55.4785 68.6475C55.2298 68.6547 54.9792 68.6319 54.7326 68.6559C54.4962 68.6788 54.4645 68.5779 54.4677 68.3712C54.4792 67.6408 54.4714 66.9102 54.4725 66.1796C54.4732 65.6989 54.4744 65.6989 54.9788 65.6946Z" fill="#F5F5F5"/>
<path d="M36.2565 71.6021C35.3409 71.6021 35.3409 71.6021 35.3409 70.7196C35.3409 69.2346 35.3406 67.7495 35.3411 66.2645C35.3413 65.6965 35.3421 65.6965 35.8998 65.6965C37.3219 65.6967 38.2836 66.431 38.6109 67.7666C38.965 69.2116 38.4184 70.6921 37.3001 71.3269C36.9852 71.5057 36.656 71.6201 36.2565 71.6021Z" fill="#F7F7F7"/>
<path d="M76.617 70.1849C76.2112 69.0952 76.2034 68.0299 76.679 66.995C77.1016 66.0754 77.8063 65.5382 78.8517 65.5618C79.8673 65.5847 80.5353 66.138 80.9218 67.0399C81.4071 68.1722 81.3876 69.3207 80.8436 70.4291C80.4342 71.2632 79.7586 71.7381 78.8125 71.7451C77.8678 71.7521 77.2049 71.2797 76.7544 70.4668C76.7083 70.3836 76.6718 70.2951 76.617 70.1849Z" fill="#F5F5F5"/>
<path d="M46.2249 67.0138C46.5666 68.1082 45.779 69.2204 44.6476 69.2742C43.7448 69.3171 43.7449 69.3171 43.7447 68.4152C43.7446 67.7102 43.741 67.0053 43.7451 66.3004C43.7484 65.7351 43.7891 65.6984 44.3447 65.6982C45.4543 65.6979 45.9582 66.0428 46.2249 67.0138Z" fill="#F4F4F4"/>
<path d="M50.1357 67.9322C50.4258 68.5981 50.7029 69.2404 50.9975 69.8744C51.0842 70.061 51.0314 70.1241 50.8577 70.1761C50.5032 70.2822 50.1541 70.268 49.8147 70.1363C49.2153 69.9036 48.6186 69.6741 47.9338 69.9084C47.9893 69.77 48.022 69.6809 48.0602 69.5944C48.523 68.5461 48.9865 67.4982 49.4692 66.4065C49.7002 66.931 49.9148 67.4182 50.1357 67.9322Z" fill="#F4F4F4"/>
<path d="M30.5641 66.9473C30.9885 67.9159 31.3847 68.8682 31.82 69.8018C31.95 70.0806 31.8532 70.1584 31.6272 70.2045C31.2848 70.2744 30.9475 70.2538 30.6187 70.1189C30.0457 69.8838 29.4654 69.6888 28.7754 69.9084C29.3003 68.7168 29.7977 67.5878 30.3157 66.4119C30.4088 66.6145 30.4798 66.7692 30.5641 66.9473Z" fill="#F4F4F4"/>
<path d="M61.9361 66.9316C62.3705 67.9235 62.7913 68.8924 63.2296 69.8531C63.3228 70.0572 63.2685 70.1275 63.0806 70.18C62.7258 70.279 62.3784 70.2612 62.0377 70.129C61.4505 69.9012 60.8638 69.6785 60.1628 69.9102C60.6865 68.7159 61.1809 67.5882 61.6797 66.4504C61.8235 66.5743 61.8436 66.7587 61.9361 66.9316Z" fill="#F4F4F4"/>
<path d="M37.972 16.3275C37.4491 14.7216 37.2846 13.1099 37.539 11.464C38.0444 8.19375 39.8397 5.86368 42.7205 4.38848C44.1403 3.66145 45.6887 3.47562 47.2772 3.59761C49.2021 3.74542 50.8844 4.44449 52.2631 5.81777C53.4189 6.9689 54.0074 8.41574 54.2398 10.0139C54.5606 12.2208 53.9124 14.1409 52.4841 15.8119C50.3379 18.323 45.967 17.9683 44.3284 15.1516C43.4371 13.6195 43.8068 11.5238 45.1938 10.4325C45.8041 9.9522 46.4896 9.66783 47.2663 10.0656C47.8967 10.3884 48.0923 10.9482 47.7955 11.5906C47.6259 11.958 47.418 12.3071 47.2441 12.6726C46.9783 13.2312 47.1116 13.6319 47.6468 13.9387C48.5342 14.4472 49.4936 14.2746 50.123 13.4644C51.1459 12.1476 51.2836 10.6818 50.6573 9.17687C50.0326 7.67601 48.7898 7.04352 47.2311 6.90572C45.9725 6.79445 44.7759 6.95204 43.6617 7.5693C41.3656 8.84133 40.1912 11.4836 40.6993 14.0861C41.2446 16.8789 43.0274 18.5528 45.5159 19.5617C47.6825 20.4401 49.9381 20.5994 52.2442 20.2394C53.7154 20.0098 55.1916 19.7548 56.69 19.853C60.1681 20.0809 62.9989 21.4718 64.7647 24.6314C65.6422 26.2015 65.958 27.9319 65.9347 29.736C65.9131 31.3966 65.4698 32.9253 64.5782 34.3042C63.2016 36.4332 61.2347 37.7375 58.7561 38.073C56.3245 38.4022 54.0603 37.8374 52.3143 35.9851C50.8438 34.425 50.0771 32.5409 50.3455 30.3309C50.8023 26.5705 54.708 25.3192 56.9645 26.1088C58.6636 26.7033 59.7212 28.5091 59.3689 30.2508C59.2516 30.8305 58.9711 31.3286 58.4586 31.6512C57.7087 32.1233 56.8374 31.7785 56.609 30.9225C56.5046 30.5313 56.4379 30.1292 56.3225 29.7416C56.159 29.1925 55.8618 29.0368 55.3056 29.1078C54.16 29.254 53.4879 30.2054 53.6652 31.4525C54.0698 34.2973 57.3299 36.0792 60.1743 34.158C61.3329 33.3754 62.1601 32.2961 62.5074 30.9218C63.3793 27.4714 61.6243 23.9392 57.715 23.2371C54.8778 22.7275 52.3188 23.455 50.0038 25.1091C48.9019 25.8964 48.2397 27.0595 47.6655 28.2672C47.502 28.611 47.3732 28.9725 47.1984 29.3099C46.8168 30.0466 46.82 30.8789 46.602 31.6561C45.5556 35.387 43.1146 37.6756 39.4536 38.6512C37.3104 39.2223 35.1735 39.0687 33.1282 38.1986C30.457 37.0621 28.7868 35.0671 28.2152 32.1562C27.7634 29.8555 28.1177 27.7409 29.5063 25.8332C31.4902 23.1076 35.3405 22.1629 38.3213 23.6835C39.7847 24.43 40.5684 25.6699 40.8287 27.2859C41.0235 28.495 40.8758 29.6364 40.2655 30.7062C39.2509 32.4849 36.8145 33.0592 35.1329 31.9132C34.6464 31.5816 34.3047 31.1291 34.2921 30.5329C34.2763 29.7846 34.6831 29.2597 35.642 29.3042C36.0087 29.3212 36.3751 29.3409 36.7418 29.3388C37.3687 29.3352 37.6169 29.1033 37.6877 28.4736C37.7983 27.4904 37.3133 26.7441 36.3754 26.4548C34.4538 25.862 32.3172 26.8448 31.5372 28.7025C31.0182 29.9386 31.199 31.1792 31.6929 32.3591C32.5233 34.3428 34.0616 35.4545 36.1571 35.7282C38.4498 36.0276 40.4353 35.3426 42.0517 33.6507C43.1286 32.5235 43.7745 31.1778 43.9449 29.6158C44.3082 26.2848 43.2965 23.408 41.1237 20.9107C40.2573 19.9149 39.3554 18.9452 38.6632 17.8073C38.3839 17.3481 38.1506 16.8662 37.972 16.3275Z" fill="#838383"/>
<path d="M60.1087 46.7144C60.7927 46.9784 61.4628 47.1975 62.1371 47.4116C61.2741 47.4969 60.4205 47.4057 59.5731 47.2911C57.8443 47.0574 56.1615 46.6398 54.5834 45.864C52.2688 44.726 50.5521 43.042 49.8308 40.4711C49.6084 39.6784 49.5616 38.8526 49.4363 38.0416C49.1715 36.3288 49.0797 34.6025 49.0873 32.8518C49.2477 33.3225 49.4097 33.7927 49.5679 34.2642C50.0147 35.5953 50.3822 36.9602 50.9214 38.2519C52.1328 41.1532 54.1907 43.3428 56.7919 45.0327C57.8301 45.7072 58.932 46.2555 60.1087 46.7144Z" fill="#838383"/>
<path d="M49.7423 44.2513C51.2963 46.287 53.272 47.7261 55.5561 48.8013C55.4505 48.8013 55.3441 48.8093 55.2394 48.799C55.1343 48.7886 55.0313 48.758 54.9268 48.7395C52.7435 48.3524 50.6919 47.6401 48.9654 46.1791C47.2737 44.7475 46.345 42.9217 46.2968 40.6698C46.2607 38.9827 46.3115 37.2969 46.3848 35.6117C46.3983 35.302 46.4343 34.9933 46.4612 34.6692C46.5707 34.7377 46.5592 34.8513 46.5782 34.9566C46.8365 36.3833 47.0688 37.8158 47.3655 39.2344C47.7527 41.0863 48.6015 42.7286 49.7423 44.2513Z" fill="#838383"/>
<path d="M42.2062 41.8013C43.0244 40.2257 43.5139 38.5665 43.8278 36.8472C44.0558 38.8784 43.9677 40.8837 43.3607 42.8315C42.5271 45.5059 40.8865 47.3468 38.0673 47.9604C36.5209 48.2969 34.9726 48.6168 33.4137 48.8852C33.392 48.8889 33.3678 48.8772 33.2754 48.859C34.0603 48.4894 34.7925 48.1413 35.5274 47.7992C36.7186 47.2447 37.9288 46.735 38.9515 45.8649C40.2912 44.7252 41.3793 43.39 42.2062 41.8013Z" fill="#838383"/>
</svg>
