<svg width="96" height="72" viewBox="0 0 96 72" fill="none" xmlns="http://www.w3.org/2000/svg">
<path d="M17.4315 37.7348C17.0418 36.2679 16.7451 34.8148 16.5571 33.3334C16.3608 31.7858 16.3361 30.237 16.3626 28.6846C16.386 27.3131 16.552 25.953 16.7966 24.6046C17.138 22.723 17.6334 20.8835 18.3468 19.1089C18.9977 17.4899 19.7615 15.9306 20.6715 14.4393C22.1356 12.0399 23.9282 9.91982 25.9755 8.02345C27.7221 6.40554 29.6465 5.02719 31.732 3.87542C33.2944 3.01255 34.9093 2.2752 36.5898 1.69548C38.3548 1.08659 40.1639 0.649317 42.0118 0.3577C44.0171 0.0412504 46.0304 -0.0433407 48.0508 0.0191828C49.1678 0.0537523 50.2802 0.182635 51.3896 0.342007C53.0059 0.574198 54.5837 0.959794 56.1417 1.44155C57.3972 1.82979 58.6227 2.29944 59.8131 2.85785C61.6172 3.70414 63.3339 4.70661 64.9486 5.88121C65.8783 6.55744 66.7594 7.29506 67.6125 8.06966C68.415 8.79829 69.1788 9.56328 69.8861 10.3841C70.7156 11.3468 71.4869 12.3541 72.2076 13.406C73.0319 14.6093 73.7441 15.8731 74.3769 17.1836C75.5282 19.5678 76.3147 22.0723 76.807 24.6801C77.2399 26.973 77.3122 29.2863 77.2105 31.6005C77.112 33.8424 76.6941 36.0426 76.0508 38.1973C75.5781 39.7807 74.9823 41.3154 74.2553 42.7913C73.2533 44.8257 72.0264 46.7181 70.5809 48.4661C69.8364 49.3664 69.0652 50.2389 68.2238 51.0453C66.7979 52.412 65.2549 53.6268 63.6016 54.7049C61.9764 55.7647 60.26 56.6445 58.4757 57.3791C56.6925 58.1131 54.8475 58.6626 52.9505 59.0243C51.6762 59.2673 50.3975 59.4456 49.1016 59.5392C47.7397 59.6375 46.3759 59.6469 45.021 59.5785C41.7357 59.4128 38.5542 58.6941 35.4828 57.4985C33.9693 56.9093 32.5095 56.1997 31.1139 55.3655C29.5365 54.4226 28.0462 53.3549 26.6499 52.1486C24.4415 50.2407 22.5462 48.0589 20.9715 45.5965C19.4674 43.2446 18.2951 40.7329 17.5297 38.0347C17.5037 37.9429 17.4694 37.8535 17.4315 37.7348Z" fill="#D6D6D6"/>
<path d="M68.3433 69.8743C68.3432 70.2575 68.3374 70.6049 68.3448 70.952C68.3513 71.2548 68.4044 71.5467 68.634 71.8045C68.3761 71.8661 68.1357 71.8322 67.842 71.8264C68.1084 71.5121 68.1323 71.1709 68.1306 70.8146C68.1234 69.3297 68.1253 67.8447 68.1292 66.3598C68.13 66.0525 68.0862 65.7656 67.872 65.5259C68.4898 65.3962 68.4926 65.3985 68.779 65.9215C69.5723 67.3696 70.3658 68.8175 71.1619 70.2639C71.2109 70.3529 71.2308 70.4692 71.3606 70.5221C72.0681 69.0869 72.7743 67.6547 73.4801 66.2223C73.5222 66.1369 73.5599 66.0493 73.6027 65.9643C73.8677 65.4363 73.868 65.4365 74.5116 65.5075C74.265 65.8439 74.2411 66.2236 74.2429 66.6159C74.2493 68.005 74.2483 69.3941 74.2435 70.7833C74.2423 71.1452 74.2832 71.4904 74.5357 71.8164C74.0906 71.8164 73.6838 71.8164 73.2338 71.8164C73.4999 71.5102 73.5216 71.1642 73.5203 70.8067C73.5155 69.4683 73.5184 68.13 73.4591 66.7704C73.2454 67.2012 73.0307 67.6314 72.8182 68.0628C72.32 69.0741 71.8244 70.0867 71.3232 71.0966C71.2691 71.2057 71.2598 71.364 71.0862 71.3752C70.8921 71.3878 70.8692 71.2158 70.804 71.0999C70.0709 69.7971 69.3419 68.4918 68.6111 67.1875C68.5476 67.0743 68.4795 66.9637 68.3433 66.8566C68.3433 67.8505 68.3433 68.8445 68.3433 69.8743Z" fill="white"/>
<path d="M95.2164 71.15C95.3753 71.4334 95.5725 71.6276 95.88 71.6708C95.9391 71.6791 96.0103 71.6746 95.9987 71.7589C95.9843 71.8638 95.899 71.83 95.8318 71.8281C95.158 71.8086 94.6279 71.5434 94.2805 70.9355C94.073 70.5724 93.9446 70.1761 93.7718 69.7989C93.4256 69.0434 92.8974 68.7586 92.0834 68.8652C91.9564 68.8818 91.9286 68.9268 91.9295 69.0407C91.9352 69.7586 91.9331 70.4765 91.9417 71.1944C91.9444 71.4151 92.0462 71.6055 92.2143 71.8099C91.7722 71.8099 91.3685 71.8099 90.924 71.8099C91.2102 71.4665 91.1851 71.0653 91.1842 70.6659C91.1809 69.2419 91.1805 67.8178 91.1846 66.3938C91.1855 66.0762 91.1579 65.7731 90.8687 65.4695C91.9039 65.5221 92.8748 65.3566 93.8266 65.5758C94.7433 65.7869 95.2362 66.4224 95.2189 67.2594C95.2057 67.9003 94.723 68.484 94.0048 68.7261C93.9094 68.7583 93.8122 68.7847 93.6348 68.8382C94.5168 69.2149 94.793 69.9614 95.0418 70.7294C95.0857 70.8648 95.1511 70.993 95.2164 71.15Z" fill="white"/>
<path d="M10.8356 68.8373C11.4786 69.1088 11.8394 69.5576 11.8033 70.2528C11.7688 70.9178 11.359 71.2972 10.7758 71.5311C10.3871 71.687 9.98335 71.7866 9.57212 71.7988C8.78153 71.8224 7.98976 71.8057 7.16213 71.8057C7.44057 71.4658 7.42239 71.0664 7.42098 70.6656C7.41602 69.2527 7.41501 67.8398 7.42198 66.427C7.42361 66.096 7.38768 65.7855 7.12793 65.4771C8.14109 65.5109 9.11207 65.3691 10.0574 65.6758C10.7571 65.9028 11.1481 66.3387 11.1733 66.9057C11.2102 67.7334 10.9749 68.1125 10.2115 68.4692C10.1559 68.4952 10.0668 68.4937 10.0542 68.6028C10.3059 68.6765 10.5585 68.7506 10.8356 68.8373Z" fill="white"/>
<path d="M18.107 68.2214C18.107 67.5988 18.1024 67.0122 18.1089 66.4257C18.1125 66.0953 18.0742 65.7823 17.7878 65.4715C18.8079 65.5211 19.7641 65.3814 20.7113 65.5667C21.1635 65.6552 21.5553 65.883 21.8361 66.2584C22.4226 67.0427 22.2001 68.2752 20.9207 68.7262C20.8233 68.7605 20.7227 68.7856 20.5412 68.8393C21.4239 69.2014 21.6984 69.9496 21.9567 70.7145C22.107 71.1596 22.271 71.6051 22.8307 71.6738C22.8908 71.6812 22.9157 71.7145 22.909 71.7664C22.8978 71.8519 22.831 71.8333 22.7729 71.8317C22.0852 71.8128 21.5434 71.5432 21.19 70.9223C20.983 70.5589 20.8564 70.1615 20.6827 69.7843C20.2623 68.8711 19.7547 68.8578 18.9855 68.8664C18.8451 68.868 18.8401 68.944 18.8406 69.0483C18.8435 69.7546 18.8383 70.4609 18.8488 71.1671C18.8523 71.3972 18.9551 71.602 19.1245 71.8113C18.6901 71.8113 18.2848 71.8113 17.8266 71.8113C18.125 71.466 18.1119 71.0658 18.1088 70.6635C18.1027 69.8615 18.107 69.0594 18.107 68.2214Z" fill="white"/>
<path d="M83.3394 67.2153C83.3386 66.8322 83.3524 66.4841 83.3319 66.138C83.3184 65.9107 83.2212 65.701 83.0325 65.4728C84.0402 65.521 85.0118 65.3612 85.9649 65.5751C86.9652 65.7997 87.5301 66.6248 87.3326 67.5034C87.1872 68.1502 86.7251 68.4994 86.148 68.7252C86.0496 68.7637 85.9447 68.7851 85.7773 68.8333C86.6546 69.2141 86.9409 69.976 87.1958 70.7696C87.3485 71.2447 87.5802 71.6678 88.1513 71.7C88.1323 71.8527 88.0542 71.8306 87.9847 71.8295C87.243 71.8177 86.6898 71.4854 86.3552 70.8161C86.1752 70.4559 86.0438 70.071 85.8684 69.7082C85.4641 68.8719 84.9578 68.8522 84.1972 68.8676C84.0507 68.8706 84.0634 68.967 84.0635 69.0629C84.0641 69.7453 84.06 70.4279 84.0682 71.1103C84.0712 71.3644 84.1776 71.5901 84.3453 71.8183C83.9105 71.8183 83.5029 71.8183 83.0519 71.8183C83.3103 71.4946 83.3463 71.1431 83.3431 70.7714C83.3331 69.598 83.3394 68.4246 83.3394 67.2153Z" fill="white"/>
<path d="M53.7605 69.3711C53.7605 68.39 53.7596 67.4448 53.761 66.4997C53.7616 66.1482 53.7022 65.8149 53.4504 65.4747C54.455 65.5193 55.4214 65.3682 56.3728 65.5759C56.9751 65.7074 57.4588 66.0481 57.6831 66.6603C57.9951 67.5116 57.5059 68.401 56.5647 68.7245C56.4646 68.7589 56.3609 68.7824 56.1822 68.8325C57.1026 69.2342 57.3599 70.0525 57.6377 70.8625C57.7722 71.2545 57.965 71.6096 58.4359 71.6718C58.488 71.6786 58.5334 71.694 58.5266 71.752C58.5139 71.8609 58.428 71.8274 58.3625 71.8256C57.7311 71.8077 57.2233 71.5649 56.8753 71.0114C56.6587 70.667 56.5259 70.2858 56.3687 69.9149C56.0063 69.0594 55.5666 68.7976 54.6543 68.8628C54.4828 68.8751 54.4701 68.9443 54.471 69.081C54.4756 69.751 54.4703 70.421 54.4749 71.091C54.4767 71.3556 54.5684 71.5932 54.7739 71.821C54.3215 71.821 53.914 71.821 53.4903 71.821C53.941 71.0473 53.6975 70.2106 53.7605 69.3711Z" fill="white"/>
<path d="M36.3089 71.8355C35.6406 71.8378 35.005 71.8378 34.3047 71.8378C34.6159 71.4431 34.5801 71.0259 34.5797 70.6141C34.5784 69.2148 34.5781 67.8155 34.5798 66.4162C34.5802 66.1018 34.5626 65.7947 34.28 65.4778C34.5284 65.4778 34.707 65.4721 34.8851 65.4788C35.5809 65.5047 36.2822 65.4058 36.9724 65.5513C38.5247 65.8784 39.5913 67.223 39.4862 68.7583C39.3654 70.5239 38.1624 71.7165 36.4833 71.8228C36.436 71.8258 36.3888 71.8297 36.3089 71.8355Z" fill="white"/>
<path d="M81.8955 67.6032C82.2306 68.939 82.0347 70.1422 81.0553 71.0979C80.0419 72.0869 78.7976 72.2025 77.5259 71.7361C76.3243 71.2953 75.7202 70.3381 75.5844 69.0675C75.4554 67.8609 75.7766 66.8149 76.7144 66.0252C78.1363 64.8278 81.1385 65.0394 81.8955 67.6032Z" fill="white"/>
<path d="M43.0229 68.5807C43.0229 67.7902 43.0167 67.0356 43.0261 66.2812C43.0297 65.9922 42.9692 65.7375 42.7092 65.4675C43.7212 65.5278 44.68 65.3512 45.6173 65.5741C46.5683 65.8004 47.1457 66.6587 47.0771 67.6282C47.0107 68.5669 46.2774 69.3276 45.3233 69.4504C44.8984 69.5051 44.4715 69.4986 44.0455 69.4884C43.8315 69.4833 43.7179 69.5203 43.7405 69.7773C43.7833 70.2641 43.6972 70.7551 43.7942 71.2436C43.8343 71.4458 43.9197 71.6197 44.0399 71.8188C43.5995 71.8188 43.193 71.8188 42.743 71.8188C42.98 71.5549 43.0326 71.2688 43.0272 70.952C43.014 70.1737 43.0229 69.3951 43.0229 68.5807Z" fill="white"/>
<path d="M13.5883 65.478C14.5823 65.4782 15.5417 65.4928 16.5002 65.4701C16.8029 65.463 16.8999 65.5489 16.8562 65.8423C16.8361 65.9767 16.8528 66.1167 16.8167 66.2925C16.5625 65.6637 16.0579 65.6737 15.537 65.6921C15.064 65.7089 14.5897 65.7041 14.1164 65.6919C13.8861 65.686 13.7937 65.7784 13.7946 66.0048C13.7977 66.7827 13.799 67.5607 13.7915 68.3385C13.79 68.4994 13.8473 68.5399 13.9964 68.5374C14.4935 68.5288 14.9909 68.5358 15.4881 68.5296C15.7861 68.5259 16.0261 68.3841 16.2591 68.0849C16.2591 68.4846 16.2591 68.792 16.2591 69.1623C15.7569 68.5896 15.1251 68.7742 14.5398 68.7594C13.7952 68.7406 13.7948 68.7548 13.7948 69.5161C13.7948 70.0906 13.8042 70.6653 13.791 71.2394C13.7845 71.52 13.8828 71.6179 14.1649 71.6074C14.7089 71.5873 15.2555 71.5768 15.7983 71.6088C16.2933 71.638 16.6888 71.5351 16.951 71.0393C16.951 71.2612 16.9494 71.483 16.9516 71.7049C16.9527 71.8202 16.887 71.8393 16.7913 71.8391C15.4689 71.8377 14.1464 71.8382 12.7654 71.8382C13.0701 71.4206 13.071 70.985 13.0698 70.5461C13.0663 69.2536 13.0667 67.961 13.0697 66.6685C13.0707 66.2622 13.0442 65.865 12.7743 65.4781C13.0625 65.4781 13.3079 65.4781 13.5883 65.478Z" fill="white"/>
<path d="M47.8782 69.4542C48.444 68.186 48.9931 66.9393 49.5424 65.6928C49.5887 65.5877 49.6071 65.4678 49.7746 65.4739C49.9495 65.4802 49.9405 65.624 49.9832 65.7202C50.7668 67.4842 51.5495 69.2486 52.3226 71.0173C52.4483 71.3049 52.6101 71.559 52.8597 71.8118C52.3869 71.8118 51.9505 71.8118 51.5005 71.8118C51.7847 71.2591 51.3792 70.8469 51.2174 70.3836C51.1713 70.2517 51.0982 70.3253 51.0226 70.3556C50.5819 70.5326 50.1519 70.4857 49.7144 70.3173C49.1748 70.1096 48.6283 69.8978 48.0329 70.0915C47.9662 70.1133 47.8872 70.1227 47.8371 70.1655C47.5863 70.3799 47.2762 71.5114 47.382 71.8193C47.1473 71.8193 46.9163 71.8193 46.6782 71.8193C47.27 71.1244 47.4855 70.2586 47.8782 69.4542Z" fill="white"/>
<path d="M28.1625 71.4524C28.1282 71.6016 28.2203 71.6963 28.2507 71.8216C27.9998 71.8216 27.7699 71.8216 27.5249 71.8216C28.1375 71.1228 28.358 70.2448 28.7286 69.4472C29.2929 68.2327 29.8118 66.9967 30.3583 65.7736C30.409 65.6603 30.3961 65.4779 30.6056 65.4751C30.815 65.4723 30.8113 65.6565 30.8605 65.7673C31.6293 67.4996 32.3895 69.2358 33.1482 70.9727C33.2821 71.2792 33.4468 71.5621 33.7261 71.82C33.2372 71.82 32.7928 71.82 32.3184 71.82C32.5767 71.4155 32.3591 71.0754 32.2228 70.72C32.1155 70.4401 32.0423 70.241 31.6475 70.4132C31.2311 70.5948 30.7949 70.4151 30.3823 70.2514C29.8936 70.0575 29.3949 69.9301 28.8634 70.0893C28.7365 70.1273 28.6493 70.1836 28.6044 70.3031C28.4632 70.6793 28.2481 71.0258 28.1625 71.4524Z" fill="white"/>
<path d="M63.9032 71.838C63.8208 71.8197 63.6919 71.8653 63.75 71.7472C64.0167 71.2056 63.5855 70.8261 63.4522 70.3786C63.4248 70.2868 63.3539 70.3065 63.28 70.3406C62.7643 70.5787 62.2723 70.4518 61.7755 70.2552C61.2998 70.067 60.8114 69.9203 60.2923 70.0874C60.2362 70.1055 60.1708 70.1047 60.1222 70.1339C59.8466 70.2987 59.4955 71.5131 59.6374 71.8256C59.3997 71.8256 59.1673 71.8256 58.9226 71.8256C59.5511 71.0379 59.8149 70.0833 60.223 69.2039C60.752 68.0644 61.2312 66.9014 61.7426 65.7535C61.7919 65.6428 61.8012 65.4615 62.0117 65.4748C62.2033 65.487 62.1832 65.6503 62.2296 65.7548C62.9752 67.4355 63.7134 69.1195 64.4565 70.8014C64.6148 71.1596 64.7655 71.5246 65.1423 71.8382C64.6851 71.8382 64.3097 71.8382 63.9032 71.838Z" fill="white"/>
<path d="M24.6603 65.6958C24.4608 65.6956 24.294 65.7078 24.1294 65.6934C23.6277 65.6493 23.1873 65.7249 22.9856 66.2845C22.9404 66.2386 22.9143 66.2247 22.9138 66.2099C22.8891 65.4776 22.8894 65.478 23.6113 65.4781C24.9378 65.4784 26.2645 65.4887 27.5907 65.4699C27.892 65.4656 27.9921 65.5485 27.9481 65.8433C27.9279 65.9787 27.9447 66.1198 27.9447 66.2563C27.7667 66.285 27.7923 66.1398 27.7461 66.0758C27.5756 65.8398 27.3716 65.6876 27.0674 65.6948C26.7478 65.7025 26.4274 65.7065 26.1082 65.6921C25.8957 65.6826 25.8018 65.7794 25.7847 65.9764C25.7743 66.0953 25.7697 66.2151 25.7697 66.3345C25.7688 67.7711 25.7728 69.2078 25.7673 70.6444C25.7657 71.0519 25.7815 71.4497 26.057 71.8191C25.6108 71.8191 25.2051 71.8191 24.7546 71.8191C25.009 71.5223 25.0443 71.2052 25.0426 70.8663C25.0344 69.274 25.0359 67.6817 25.0418 66.0895C25.0427 65.8351 24.9969 65.6587 24.6603 65.6958Z" fill="white"/>
<path d="M0.298369 68.437C0.298335 67.7429 0.292221 67.0847 0.300824 66.4267C0.305149 66.0959 0.26021 65.7864 0.0227575 65.4978C0.460926 65.4978 0.868286 65.4978 1.31315 65.4978C1.04918 65.8004 1.03438 66.1398 1.03511 66.4877C1.03834 68.0194 1.03554 69.5511 1.03687 71.0829C1.03732 71.5959 1.0455 71.6015 1.54856 71.6016C2.03395 71.6016 2.52028 71.5826 3.00445 71.6071C3.4969 71.6321 3.92602 71.5697 4.12183 71.0243C4.16627 71.066 4.19344 71.0794 4.19399 71.0938C4.22214 71.8387 4.2219 71.8387 3.47586 71.8388C2.34142 71.8388 1.20698 71.8388 0 71.8388C0.32023 71.4632 0.303162 71.0634 0.300003 70.6628C0.294247 69.9329 0.298369 69.2029 0.298369 68.437Z" fill="white"/>
<path d="M5.23115 71.8365C5.14645 71.8017 4.93869 71.8974 5.07101 71.7084C5.27155 71.422 5.26602 71.105 5.26562 70.7812C5.26385 69.3326 5.26256 67.8839 5.26662 66.4353C5.26753 66.1083 5.25171 65.7912 4.98193 65.4995C5.43421 65.4995 5.82903 65.4995 6.25029 65.4995C5.97675 65.908 5.97486 66.3676 5.97666 66.8318C5.98168 68.1247 5.98041 69.4177 5.97734 70.7107C5.97643 71.0968 6.02586 71.4669 6.28608 71.837C5.9169 71.837 5.58986 71.837 5.23115 71.8365Z" fill="white"/>
<path d="M89.75 70.6555C89.7286 71.0865 89.7877 71.4648 90.0358 71.8235C89.5995 71.8235 89.2014 71.8235 88.7498 71.8235C89.0327 71.491 89.0349 71.1212 89.0333 70.7438C89.0272 69.2945 89.0273 67.8451 89.0335 66.3958C89.0349 66.0774 88.9909 65.7812 88.7578 65.5005C89.1964 65.5005 89.5978 65.5005 90.028 65.5005C89.7834 65.8402 89.746 66.2104 89.7477 66.5964C89.7537 67.9379 89.75 69.2794 89.75 70.6555Z" fill="white"/>
<path d="M27.5871 50.1894C27.0176 49.79 26.5597 49.3037 26.102 48.8292C25.3277 48.0266 24.5939 47.1819 23.924 46.2858C21.3978 42.9069 19.6834 39.1518 18.8625 34.9941C18.6159 33.7449 18.4943 32.4775 18.4051 31.2035C18.2859 29.5022 18.413 27.8226 18.6211 26.1394C18.8089 24.6203 19.1288 23.1299 19.5931 21.6775C20.2675 19.5677 21.1525 17.551 22.3133 15.6595C23.6048 13.5552 25.1241 11.6411 26.9083 9.94774C28.6287 8.31509 30.5099 6.90016 32.5836 5.74869C34.2789 4.80732 36.0334 4.01238 37.8819 3.43294C39.54 2.91317 41.222 2.51162 42.9498 2.30063C44.3578 2.1287 45.7678 1.98843 47.1846 2.03338C48.8808 2.0872 50.5668 2.24801 52.2415 2.56419C54.2114 2.93607 56.1152 3.51824 57.9651 4.27457C59.4129 4.86652 60.7988 5.60037 62.1238 6.43857C63.7895 7.49232 65.3316 8.7062 66.7598 10.0776C68.7378 11.977 70.3911 14.1222 71.7417 16.5132C73.2982 19.2684 74.3304 22.2153 74.8614 25.3369C75.0206 26.2731 75.1125 27.2222 75.182 28.1743C75.2494 29.0963 75.2583 30.0171 75.2215 30.9339C75.167 32.2888 75.0097 33.6373 74.7485 34.9718C74.4708 36.3906 74.0972 37.7807 73.6025 39.1375C72.7887 41.3689 71.688 43.4437 70.3491 45.401C69.4375 46.7337 68.366 47.9213 67.2908 49.1106C67.2272 49.1809 67.152 49.2404 67.0604 49.3179C67.0105 49.345 66.9811 49.355 66.9312 49.3749C66.9122 49.3888 66.9163 49.3896 66.916 49.3875C66.6061 49.5868 66.2408 49.5993 65.8981 49.6773C63.6892 50.1797 61.4535 50.5348 59.2102 50.8283C58.4996 50.9213 57.77 50.9057 57.0489 50.9319C56.4933 50.952 55.9349 50.9774 55.3824 50.9772C53.6327 50.9765 51.8755 50.9946 50.2358 50.1859C48.8494 49.5021 47.6907 48.5432 46.6544 47.4026C46.086 46.777 45.6993 46.037 45.2492 45.3356C45.1795 45.227 45.1174 45.1112 45.0003 44.9922C44.9179 45.1938 44.879 45.3773 44.8359 45.5596C44.4418 47.2242 43.7183 48.6978 42.4897 49.9128C41.6591 50.7342 40.6555 51.1712 39.56 51.4373C37.9819 51.8205 36.3893 51.737 34.7943 51.5517C32.6268 51.2998 30.4817 50.9194 28.3539 50.4352C28.1008 50.3776 27.8385 50.3492 27.5871 50.1894Z" fill="white"/>
<path d="M27.5728 50.1964C28.4075 50.3457 29.2525 50.5151 30.0954 50.6946C31.5758 51.0098 33.0693 51.2347 34.5722 51.4082C35.7019 51.5386 36.8273 51.6451 37.9689 51.5681C41.3844 51.3376 43.3712 49.7377 44.5125 46.3304C44.6878 45.8068 44.7966 45.2604 44.9545 44.6545C45.3616 45.3227 45.6893 45.9752 46.1206 46.5479C47.7216 48.6739 49.691 50.2842 52.3803 50.7328C53.4627 50.9134 54.5704 50.9149 55.672 50.852C56.4759 50.806 57.2824 50.7967 58.0864 50.7811C59.5852 50.7519 61.0421 50.4408 62.5129 50.2212C63.9727 50.0032 65.4121 49.6741 66.8859 49.3785C66.5334 49.9236 66.0127 50.3211 65.5198 50.738C62.4964 53.2947 59.1032 55.1683 55.3243 56.3206C53.4538 56.891 51.5463 57.2546 49.6022 57.45C48.3035 57.5805 47.0024 57.6298 45.7031 57.5694C41.937 57.3944 38.3159 56.5735 34.8667 55.008C32.2452 53.8181 29.864 52.2559 27.6939 50.3581C27.6502 50.3199 27.6191 50.267 27.5728 50.1964Z" fill="#838383"/>
<path d="M66.9308 49.3885C66.9192 49.3362 66.9578 49.3315 67.0187 49.3306C67.0088 49.3503 66.9791 49.3697 66.9308 49.3885Z" fill="#838383"/>
<path d="M91.9305 66.5705C91.9382 65.5198 91.8588 65.7039 92.7964 65.7001C93.6695 65.6965 94.3127 66.1921 94.4323 66.9248C94.5743 67.7949 93.9166 68.5923 92.9986 68.6422C92.6587 68.6607 92.2275 68.7607 92.0009 68.5954C91.7818 68.4356 91.9465 67.9739 91.9335 67.6454C91.9198 67.2994 91.9305 66.9525 91.9305 66.5705Z" fill="black"/>
<path d="M10.4964 69.1014C11.3397 69.8187 11.1546 70.9874 10.1647 71.3995C9.5866 71.6402 8.98368 71.6006 8.38254 71.5995C8.20603 71.5992 8.1747 71.4707 8.17409 71.3281C8.17068 70.5383 8.16978 69.7485 8.16482 68.9586C8.16405 68.8359 8.18105 68.7581 8.33309 68.7526C9.06876 68.7256 9.80131 68.7073 10.4964 69.1014Z" fill="black"/>
<path d="M9.90841 68.1853C9.4146 68.4946 8.88486 68.5159 8.35299 68.5375C8.18335 68.5444 8.16267 68.4637 8.16386 68.3224C8.17032 67.558 8.17577 66.7934 8.16896 66.029C8.16657 65.7599 8.27899 65.6637 8.53471 65.6889C8.81456 65.7165 9.09428 65.6983 9.37515 65.7715C9.8965 65.9075 10.2714 66.1705 10.3909 66.7319C10.5126 67.3038 10.4091 67.7968 9.90841 68.1853Z" fill="black"/>
<path d="M20.3119 65.7814C21.1164 66.1249 21.4785 66.7168 21.3401 67.4187C21.1915 68.1725 20.5838 68.6477 19.7446 68.6479C19.453 68.6479 19.0706 68.7789 18.8936 68.5946C18.7181 68.4119 18.8475 68.0275 18.8437 67.7318C18.8366 67.1703 18.8495 66.6085 18.8412 66.047C18.8374 65.7886 18.9329 65.6717 19.1964 65.6932C19.5585 65.7227 19.9292 65.6374 20.3119 65.7814Z" fill="black"/>
<path d="M86.2689 68.0833C85.6807 68.7551 84.915 68.6532 84.175 68.6492C84.0512 68.6485 84.0636 68.552 84.0636 68.4696C84.0639 67.6449 84.0618 66.8202 84.0684 65.9956C84.0696 65.85 84.107 65.6923 84.3004 65.6991C84.6872 65.7126 85.0755 65.6473 85.4605 65.7642C86.5471 66.094 86.9157 67.1095 86.2689 68.0833Z" fill="black"/>
<path d="M54.9793 65.6948C55.2935 65.7175 55.5735 65.6698 55.8558 65.7591C56.6882 66.0225 57.0781 66.6017 56.9663 67.4539C56.8834 68.0865 56.2135 68.6265 55.479 68.6477C55.2303 68.6549 54.9796 68.6321 54.7331 68.6561C54.4967 68.6791 54.465 68.5782 54.4682 68.3715C54.4797 67.6411 54.4719 66.9104 54.473 66.1799C54.4737 65.6992 54.4749 65.6992 54.9793 65.6948Z" fill="black"/>
<path d="M36.2572 71.6014C35.3416 71.6014 35.3416 71.6014 35.3416 70.7189C35.3417 69.2338 35.3413 67.7488 35.3418 66.2637C35.342 65.6957 35.3428 65.6957 35.9006 65.6958C37.3227 65.696 38.2844 66.4303 38.6116 67.7658C38.9658 69.2109 38.4191 70.6914 37.3009 71.3262C36.9859 71.505 36.6567 71.6194 36.2572 71.6014Z" fill="black"/>
<path d="M76.6163 70.1858C76.2104 69.0962 76.2027 68.0309 76.6782 66.996C77.1009 66.0764 77.8056 65.5391 78.851 65.5628C79.8666 65.5857 80.5346 66.139 80.9211 67.0408C81.4064 68.1732 81.3869 69.3217 80.8429 70.4301C80.4335 71.2641 79.7578 71.739 78.8118 71.7461C77.867 71.7531 77.2042 71.2806 76.7537 70.4678C76.7076 70.3846 76.6711 70.2961 76.6163 70.1858Z" fill="black"/>
<path d="M46.2247 67.0133C46.5663 68.1077 45.7787 69.2199 44.6474 69.2737C43.7445 69.3166 43.7446 69.3166 43.7445 68.4147C43.7444 67.7098 43.7408 67.0048 43.7449 66.2999C43.7481 65.7347 43.7889 65.6979 44.3444 65.6978C45.4541 65.6974 45.958 66.0423 46.2247 67.0133Z" fill="black"/>
<path d="M50.1359 67.9317C50.426 68.5976 50.7031 69.24 50.9978 69.874C51.0845 70.0605 51.0316 70.1236 50.8579 70.1756C50.5035 70.2817 50.1544 70.2675 49.8149 70.1358C49.2155 69.9031 48.6188 69.6736 47.9341 69.9079C47.9896 69.7695 48.0223 69.6804 48.0605 69.5939C48.5232 68.5456 48.9867 67.4977 49.4694 66.406C49.7004 66.9305 49.915 67.4177 50.1359 67.9317Z" fill="black"/>
<path d="M30.5639 66.9473C30.9883 67.9159 31.3845 68.8682 31.8197 69.8018C31.9497 70.0806 31.853 70.1584 31.6269 70.2045C31.2845 70.2744 30.9472 70.2538 30.6184 70.1189C30.0454 69.8838 29.4652 69.6888 28.7751 69.9084C29.3001 68.7168 29.7975 67.5878 30.3155 66.4119C30.4085 66.6145 30.4795 66.7692 30.5639 66.9473Z" fill="black"/>
<path d="M61.9354 66.9326C62.3698 67.9245 62.7906 68.8934 63.2289 69.8541C63.322 70.0582 63.2677 70.1285 63.0799 70.1809C62.7251 70.28 62.3777 70.2621 62.0369 70.13C61.4498 69.9022 60.8631 69.6795 60.1621 69.9112C60.6857 68.7169 61.1802 67.5892 61.679 66.4514C61.8227 66.5753 61.8429 66.7597 61.9354 66.9326Z" fill="black"/>
<path d="M37.973 16.327C37.4501 14.7212 37.2856 13.1094 37.54 11.4635C38.0454 8.19326 39.8406 5.86319 42.7215 4.38799C44.1413 3.66097 45.6897 3.47514 47.2782 3.59712C49.2031 3.74493 50.8853 4.444 52.2641 5.81728C53.4198 6.96841 54.0084 8.41525 54.2408 10.0134C54.5616 12.2204 53.9134 14.1404 52.4851 15.8114C50.3388 18.3225 45.968 17.9678 44.3294 15.1511C43.438 13.619 43.8078 11.5233 45.1947 10.432C45.8051 9.95171 46.4905 9.66734 47.2672 10.0651C47.8977 10.3879 48.0933 10.9477 47.7965 11.5902C47.6269 11.9575 47.419 12.3066 47.2451 12.6721C46.9793 13.2308 47.1125 13.6314 47.6478 13.9382C48.5352 14.4467 49.4946 14.2741 50.124 13.4639C51.1469 12.1471 51.2846 10.6813 50.6582 9.17639C50.0336 7.67552 48.7908 7.04303 47.2321 6.90523C45.9735 6.79396 44.7769 6.95155 43.6627 7.56881C41.3665 8.84084 40.1922 11.4831 40.7003 14.0856C41.2456 16.8784 43.0284 18.5523 45.5169 19.5612C47.6835 20.4396 49.9391 20.5989 52.2452 20.2389C53.7164 20.0093 55.1926 19.7543 56.691 19.8525C60.1691 20.0804 62.9999 21.4713 64.7657 24.6309C65.6432 26.201 65.959 27.9314 65.9356 29.7355C65.9141 31.3961 65.4708 32.9248 64.5792 34.3037C63.2026 36.4327 61.2357 37.737 58.7571 38.0726C56.3255 38.4017 54.0613 37.8369 52.3153 35.9846C50.8447 34.4245 50.0781 32.5404 50.3465 30.3304C50.8032 26.57 54.709 25.3187 56.9654 26.1083C58.6646 26.7029 59.7222 28.5087 59.3699 30.2503C59.2526 30.83 58.972 31.3281 58.4596 31.6507C57.7097 32.1228 56.8384 31.778 56.61 30.922C56.5055 30.5308 56.4389 30.1287 56.3235 29.7411C56.16 29.192 55.8627 29.0363 55.3066 29.1073C54.1609 29.2536 53.4889 30.2049 53.6662 31.452C54.0708 34.2969 57.3309 36.0787 60.1753 34.1575C61.3339 33.3749 62.1611 32.2956 62.5084 30.9214C63.3803 27.4709 61.6253 23.9387 57.716 23.2366C54.8788 22.727 52.3197 23.4545 50.0047 25.1086C48.9029 25.8959 48.2407 27.059 47.6665 28.2667C47.503 28.6105 47.3741 28.972 47.1994 29.3094C46.8178 30.0461 46.8209 30.8784 46.603 31.6556C45.5566 35.3865 43.1155 37.6751 39.4546 38.6507C37.3114 39.2218 35.1745 39.0682 33.1292 38.1981C30.4579 37.0616 28.7878 35.0666 28.2162 32.1557C27.7644 29.855 28.1187 27.7404 29.5072 25.8327C31.4911 23.1071 35.3415 22.1624 38.3223 23.683C39.7857 24.4295 40.5694 25.6694 40.8297 27.2854C41.0245 28.4945 40.8768 29.6359 40.2665 30.7057C39.2519 32.4844 36.8155 33.0587 35.1339 31.9127C34.6473 31.5811 34.3057 31.1287 34.2931 30.5324C34.2773 29.7841 34.6841 29.2592 35.643 29.3037C36.0097 29.3207 36.3761 29.3404 36.7428 29.3383C37.3697 29.3348 37.6178 29.1028 37.6887 28.4731C37.7993 27.4899 37.3142 26.7436 36.3764 26.4543C34.4547 25.8615 32.3182 26.8443 31.5382 28.702C31.0192 29.9381 31.1999 31.1787 31.6939 32.3586C32.5243 34.3423 34.0626 35.4541 36.1581 35.7277C38.4508 36.0271 40.4363 35.3421 42.0527 33.6502C43.1296 32.523 43.7755 31.1773 43.9459 29.6154C44.3091 26.2843 43.2975 23.4075 41.1247 20.9103C40.2583 19.9144 39.3564 18.9447 38.6642 17.8068C38.3849 17.3476 38.1516 16.8657 37.973 16.327Z" fill="#838383"/>
<path d="M60.1094 46.7149C60.7935 46.9789 61.4635 47.198 62.1379 47.4121C61.2748 47.4974 60.4212 47.4062 59.5738 47.2916C57.845 47.0579 56.1622 46.6403 54.5842 45.8644C52.2696 44.7265 50.5528 43.0425 49.8315 40.4716C49.6091 39.6789 49.5624 38.8531 49.437 38.0421C49.1722 36.3293 49.0805 34.603 49.0881 32.8523C49.2484 33.323 49.4105 33.7932 49.5687 34.2646C50.0154 35.5958 50.3829 36.9607 50.9222 38.2524C52.1335 41.1537 54.1914 43.3432 56.7926 45.0332C57.8308 45.7077 58.9327 46.2559 60.1094 46.7149Z" fill="#838383"/>
<path d="M49.7426 44.2506C51.2965 46.2862 53.2722 47.7253 55.5564 48.8005C55.4507 48.8005 55.3443 48.8086 55.2397 48.7983C55.1346 48.7879 55.0315 48.7573 54.927 48.7388C52.7437 48.3517 50.6921 47.6394 48.9657 46.1784C47.274 44.7468 46.3452 42.921 46.297 40.6691C46.261 38.982 46.3118 37.2962 46.385 35.611C46.3985 35.3013 46.4346 34.9925 46.4615 34.6685C46.571 34.7369 46.5594 34.8506 46.5785 34.9558C46.8368 36.3826 47.0691 37.815 47.3657 39.2337C47.753 41.0856 48.6018 42.7279 49.7426 44.2506Z" fill="#838383"/>
<path d="M42.2067 41.801C43.0249 40.2255 43.5144 38.5662 43.8283 36.8469C44.0563 38.8782 43.9682 40.8835 43.3612 42.8312C42.5276 45.5057 40.887 47.3465 38.0677 47.9601C36.5214 48.2967 34.9731 48.6166 33.4141 48.885C33.3925 48.8887 33.3683 48.877 33.2759 48.8588C34.0608 48.4891 34.793 48.1411 35.5279 47.799C36.7191 47.2445 37.9293 46.7347 38.952 45.8646C40.2917 44.7249 41.3798 43.3897 42.2067 41.801Z" fill="#838383"/>
</svg>
