<?xml version="1.0" standalone="no"?>
<!DOCTYPE svg PUBLIC "-//W3C//DTD SVG 20010904//EN"
 "http://www.w3.org/TR/2001/REC-SVG-20010904/DTD/svg10.dtd">
<svg version="1.0" xmlns="http://www.w3.org/2000/svg"
 width="900.000000pt" height="900.000000pt" viewBox="0 0 900.000000 900.000000"
 preserveAspectRatio="xMidYMid meet">
<metadata>
Created by potrace 1.14, written by Peter Selinger 2001-2017
</metadata>
<g transform="translate(0.000000,900.000000) scale(0.100000,-0.100000)"
fill="#000000" stroke="none">
<path d="M4135 8899 c-490 -39 -990 -161 -1431 -349 -171 -73 -477 -233 -631
-328 -276 -172 -500 -350 -752 -597 -378 -371 -625 -704 -851 -1150 -239 -471
-376 -920 -447 -1460 -26 -200 -26 -796 0 -1000 70 -540 210 -1004 438 -1457
353 -698 871 -1276 1534 -1713 206 -136 289 -183 504 -289 510 -251 1061 -400
1644 -447 195 -15 696 -7 877 15 517 63 919 174 1370 377 935 422 1705 1158
2155 2061 226 453 365 914 432 1433 14 112 18 211 18 500 0 289 -4 388 -18
500 -122 941 -505 1768 -1146 2472 -152 167 -381 373 -592 532 -683 517 -1510
828 -2392 900 -145 12 -561 12 -712 0z m580 -299 c1122 -72 2068 -500 2830
-1281 570 -585 944 -1305 1089 -2099 47 -259 60 -413 60 -730 1 -334 -12 -469
-70 -760 -108 -542 -301 -1008 -609 -1470 -57 -85 -141 -202 -188 -260 -83
-104 -325 -380 -333 -380 -2 0 -126 -25 -276 -55 -327 -65 -749 -133 -908
-145 -238 -19 -723 -30 -842 -20 -355 30 -618 156 -878 419 -123 125 -209 235
-292 378 -33 57 -64 105 -68 108 -4 3 -16 -28 -25 -68 -74 -307 -201 -551
-366 -700 -120 -110 -260 -177 -449 -218 -90 -20 -135 -23 -320 -23 -299 -1
-572 34 -1115 141 -340 67 -319 56 -507 252 -502 522 -855 1155 -1027 1839
-84 338 -115 599 -115 977 0 300 12 449 60 725 103 602 371 1208 761 1722 267
353 629 693 1009 946 537 358 1167 591 1819 672 326 40 495 47 760 30z"/>
<path d="M4325 8384 c-180 -21 -294 -54 -430 -122 -417 -208 -666 -534 -757
-987 -18 -89 -23 -144 -23 -285 0 -193 13 -282 66 -455 62 -202 147 -335 400
-630 170 -198 222 -268 293 -391 97 -168 171 -381 195 -567 16 -116 14 -370
-4 -472 -45 -258 -190 -493 -404 -656 -77 -58 -240 -140 -326 -163 -200 -53
-449 -38 -637 38 -192 78 -348 239 -431 447 -112 280 -75 523 107 704 127 126
269 181 446 172 152 -7 253 -58 303 -150 29 -56 32 -198 4 -240 -27 -41 -54
-47 -210 -47 -118 0 -149 -4 -184 -19 -54 -25 -83 -79 -83 -156 0 -137 120
-251 305 -290 88 -18 132 -18 220 0 165 35 308 143 379 286 60 122 79 221 73
369 -7 179 -44 298 -129 426 -216 323 -763 421 -1183 211 -379 -188 -613 -598
-591 -1033 28 -573 340 -983 879 -1158 303 -99 594 -95 915 10 401 131 689
379 857 737 61 131 93 232 126 394 24 120 39 166 95 294 77 172 151 302 226
396 155 195 490 374 799 428 109 19 339 22 444 5 392 -62 660 -292 756 -651
32 -118 32 -356 0 -474 -27 -103 -85 -223 -146 -303 -88 -116 -247 -232 -375
-273 -92 -30 -245 -36 -329 -14 -254 66 -449 298 -453 540 -4 176 101 295 262
298 89 2 109 -23 145 -177 39 -166 78 -215 179 -224 70 -6 130 22 185 84 50
58 71 118 78 224 10 154 -45 297 -158 412 -242 247 -700 216 -985 -68 -68 -67
-89 -96 -127 -175 -184 -383 -63 -854 300 -1170 128 -111 276 -183 455 -220
145 -30 396 -23 540 14 216 57 378 144 529 286 199 186 328 415 386 684 25
115 25 443 0 577 -36 190 -110 370 -224 543 -70 106 -269 300 -376 366 -155
95 -346 164 -567 203 -128 22 -487 17 -655 -11 -303 -48 -361 -53 -565 -48
-283 8 -460 49 -698 162 -284 136 -472 329 -568 583 -53 141 -67 233 -62 396
5 118 10 155 33 226 53 164 126 281 244 392 173 164 385 238 641 225 210 -11
332 -57 441 -166 176 -177 220 -470 102 -693 -92 -176 -218 -248 -353 -204
-98 32 -150 82 -150 144 0 18 24 76 57 139 51 96 57 115 58 168 0 78 -27 118
-102 152 -135 62 -306 -12 -414 -180 -63 -98 -84 -173 -84 -307 1 -93 5 -126
23 -174 105 -284 404 -464 735 -443 254 16 457 137 607 361 195 292 235 618
118 976 -108 334 -394 594 -751 685 -139 35 -352 52 -472 39z"/>
<path d="M4830 4003 c1 -332 72 -953 130 -1125 148 -441 519 -748 1081 -893
231 -59 564 -103 678 -89 l54 7 -149 52 c-245 85 -386 149 -572 259 -338 201
-636 494 -819 803 -91 155 -137 269 -263 655 -67 202 -125 370 -131 373 -5 4
-9 -14 -9 -42z"/>
<path d="M4447 3783 c-13 -21 -29 -540 -24 -778 6 -269 13 -318 66 -465 58
-157 142 -281 279 -412 210 -199 488 -333 847 -408 80 -16 152 -30 160 -30 32
0 11 18 -70 58 -547 271 -964 762 -1100 1297 -18 72 -57 263 -85 425 -52 291
-61 332 -73 313z"/>
<path d="M4037 3369 c-104 -525 -373 -981 -753 -1276 -77 -61 -200 -126 -483
-259 -157 -73 -289 -138 -295 -145 -15 -15 16 -10 404 67 332 66 451 99 562
155 190 95 357 273 453 483 68 149 124 362 144 548 17 151 11 518 -8 518 -3 0
-14 -41 -24 -91z"/>
</g>
</svg>
