<?xml version="1.0" standalone="no"?>
<!DOCTYPE svg PUBLIC "-//W3C//DTD SVG 20010904//EN"
 "http://www.w3.org/TR/2001/REC-SVG-20010904/DTD/svg10.dtd">
<svg version="1.0" xmlns="http://www.w3.org/2000/svg"
 width="382.000000pt" height="382.000000pt" viewBox="0 0 382.000000 382.000000"
 preserveAspectRatio="xMidYMid meet">
<metadata>
Created by potrace 1.14, written by Peter Selinger 2001-2017
</metadata>
<g transform="translate(0.000000,382.000000) scale(0.100000,-0.100000)"
fill="#000000" stroke="none">
<path d="M1760 3175 c-8 -2 -49 -9 -90 -15 -197 -32 -395 -131 -546 -272 -537
-503 -403 -1376 262 -1707 532 -264 1187 -45 1450 484 88 177 121 358 103 557
-38 411 -335 777 -734 904 -130 41 -357 66 -445 49z m260 -80 c227 -34 420
-134 578 -299 121 -126 192 -245 237 -400 92 -321 20 -650 -202 -912 l-43 -51
-132 -24 c-97 -17 -171 -23 -273 -24 -131 0 -144 2 -195 26 -61 29 -118 82
-160 147 l-28 43 -18 -57 c-22 -72 -67 -131 -119 -158 -34 -18 -58 -21 -160
-21 -77 0 -156 7 -220 19 -88 17 -105 24 -139 55 -103 96 -217 293 -258 446
-32 120 -31 357 0 475 76 279 255 502 511 634 193 100 405 134 621 101z"/>
<path d="M1787 3050 c-87 -22 -177 -92 -216 -167 -32 -64 -45 -152 -32 -223
12 -72 39 -121 111 -205 92 -108 131 -223 111 -330 -13 -67 -30 -101 -73 -142
-45 -44 -96 -63 -168 -63 -95 0 -151 36 -188 123 -48 111 53 233 163 197 35
-12 45 -26 45 -66 0 -24 -15 -31 -69 -33 -35 0 -55 -24 -47 -55 13 -52 112
-74 172 -37 61 37 82 136 45 217 -58 128 -265 138 -369 19 -56 -63 -67 -93
-67 -180 1 -140 67 -238 194 -286 113 -42 270 -12 364 70 40 36 107 159 107
198 0 36 55 147 90 182 17 16 56 42 88 58 49 24 69 28 142 28 69 0 93 -5 127
-23 103 -54 141 -183 86 -289 -62 -119 -225 -129 -275 -16 -23 53 -18 86 17
109 33 22 45 15 64 -36 12 -33 23 -46 40 -48 49 -7 82 59 61 123 -35 105 -184
121 -272 28 -94 -99 -43 -285 98 -354 39 -18 58 -21 128 -17 95 5 149 30 206
95 57 64 75 117 74 214 0 77 -4 94 -32 152 -37 75 -83 119 -162 156 -61 28
-152 33 -326 17 -80 -8 -100 -6 -162 13 -156 47 -238 169 -203 301 26 95 98
149 199 150 102 0 152 -47 152 -143 0 -79 -64 -131 -115 -93 -19 13 -19 14 0
56 22 49 13 73 -28 78 -83 10 -137 -110 -84 -188 37 -55 70 -74 140 -77 81 -5
129 22 173 95 38 62 47 113 34 181 -13 69 -31 102 -84 148 -65 57 -174 84
-259 63z"/>
<path d="M1951 1950 c-1 -164 37 -283 112 -344 81 -66 197 -106 302 -105 l50
0 -62 23 c-134 50 -252 144 -308 247 -16 30 -44 97 -61 149 l-33 95 0 -65z"/>
<path d="M1850 1825 c0 -70 5 -145 12 -167 16 -55 76 -119 145 -155 58 -31
149 -60 159 -50 3 2 -19 18 -48 35 -67 37 -158 134 -192 204 -15 30 -35 98
-45 152 -11 53 -22 100 -25 103 -3 4 -6 -51 -6 -122z"/>
<path d="M1747 1816 c-51 -165 -118 -246 -261 -316 -55 -28 -92 -50 -81 -50
36 1 193 38 222 54 88 45 150 187 141 321 l-3 50 -18 -59z"/>
<path d="M465 750 l0 -122 62 4 c69 4 103 26 103 64 0 12 -11 31 -24 41 -19
15 -21 21 -10 31 20 18 17 56 -4 75 -10 9 -42 19 -72 23 l-55 6 0 -122z m93
88 c29 -29 7 -78 -35 -78 -21 0 -23 5 -23 45 0 40 2 45 23 45 13 0 28 -5 35
-12z m28 -123 c21 -32 -6 -65 -52 -65 -34 0 -34 0 -34 46 l0 45 36 -3 c23 -2
42 -10 50 -23z"/>
<path d="M665 750 l0 -120 73 0 c51 0 72 4 72 13 0 8 -16 11 -55 9 l-55 -4 0
47 0 48 45 -5 c37 -5 45 -3 45 11 0 13 -9 15 -45 13 l-45 -4 0 46 0 46 43 0
c24 0 49 -6 56 -12 10 -11 12 -9 9 7 -3 17 -12 20 -73 23 l-70 3 0 -121z"/>
<path d="M845 751 c0 -116 1 -121 21 -121 19 0 20 4 16 55 -3 42 -1 55 9 55
23 0 35 -13 57 -56 12 -24 30 -44 44 -47 25 -7 38 0 22 11 -6 4 -21 26 -33 49
l-21 43 20 20 c47 47 12 97 -75 106 l-60 6 0 -121z m99 83 c22 -22 20 -50 -6
-68 -43 -30 -58 -21 -58 34 0 46 2 50 24 50 14 0 32 -7 40 -16z"/>
<path d="M1027 864 c-4 -4 -7 -14 -7 -23 0 -12 3 -12 12 -3 7 7 22 12 35 12
23 0 23 -2 23 -110 0 -103 1 -110 20 -110 19 0 20 7 20 110 0 108 0 110 23
110 13 0 29 -6 36 -12 10 -11 12 -9 9 7 -3 18 -12 20 -84 23 -44 1 -83 0 -87
-4z"/>
<path d="M1430 867 c-3 -3 -4 -57 -2 -121 l3 -116 40 0 c22 0 55 6 74 14 80
34 88 163 13 202 -30 16 -119 30 -128 21z m100 -32 c75 -39 50 -185 -32 -185
l-28 0 0 100 c0 110 3 114 60 85z"/>
<path d="M1730 869 c0 -2 -1 -57 -3 -122 -2 -116 -2 -117 21 -117 20 0 22 3
16 39 l-6 39 42 7 c51 9 80 35 80 74 0 47 -27 70 -92 77 -32 4 -58 5 -58 3z
m87 -27 c6 -4 16 -19 22 -34 8 -22 6 -31 -11 -53 -13 -17 -28 -25 -42 -23 -17
2 -22 11 -24 47 -2 24 -1 50 2 57 6 15 34 18 53 6z"/>
<path d="M2110 869 c0 -2 -1 -57 -3 -122 -2 -113 -1 -117 19 -117 19 0 20 4
16 55 -4 46 -2 55 12 55 20 0 56 -35 56 -54 0 -18 47 -56 69 -56 14 1 14 2 1
13 -9 7 -25 32 -37 55 -21 43 -21 44 -2 63 45 45 10 96 -73 105 -32 4 -58 5
-58 3z m91 -29 c30 -16 26 -68 -7 -80 -48 -19 -54 -14 -54 40 0 44 3 50 21 50
11 0 29 -5 40 -10z"/>
<path d="M2380 824 c-12 -27 -35 -79 -52 -117 -30 -64 -32 -87 -9 -72 6 3 11
14 11 24 0 30 23 43 54 31 15 -5 38 -10 51 -10 18 0 26 -7 31 -25 4 -18 13
-25 29 -25 22 0 21 4 -30 116 -30 64 -56 118 -59 121 -3 3 -15 -16 -26 -43z
m57 -120 c-3 -3 -23 -2 -45 3 l-40 8 21 51 21 52 25 -54 c13 -30 21 -57 18
-60z"/>
<path d="M2620 869 c-6 -97 -3 -239 6 -239 7 0 9 30 7 88 l-4 87 19 -30 c10
-16 31 -51 46 -77 15 -27 30 -48 34 -48 4 0 24 33 45 73 l37 72 -3 -82 c-2
-77 -1 -83 18 -83 19 0 20 6 18 115 -1 63 -5 116 -10 117 -4 1 -28 -37 -53
-85 l-45 -86 -43 78 c-35 65 -71 115 -72 100z"/>
<path d="M2933 850 c-64 -38 -67 -152 -6 -199 32 -26 108 -28 141 -5 28 19 52
65 52 99 0 99 -102 157 -187 105z m122 -20 c11 -12 20 -41 23 -73 4 -46 1 -57
-20 -82 -31 -35 -79 -38 -110 -8 -31 31 -35 108 -9 151 18 27 27 32 59 32 26
0 45 -7 57 -20z"/>
<path d="M3155 751 c0 -116 1 -121 21 -121 19 0 20 4 16 55 -3 42 -1 55 9 55
23 0 35 -13 57 -57 12 -23 31 -45 43 -48 23 -8 40 2 23 13 -6 4 -21 26 -33 49
l-21 43 20 20 c47 47 12 97 -75 106 l-60 6 0 -121z m99 83 c22 -22 20 -50 -6
-68 -43 -30 -58 -21 -58 34 0 46 2 50 24 50 14 0 32 -7 40 -16z"/>
<path d="M3433 750 c1 -113 3 -120 22 -120 18 0 20 5 17 55 -3 43 -1 55 11 55
17 0 39 -24 61 -67 16 -31 51 -52 64 -38 4 4 1 10 -5 12 -7 3 -22 25 -33 50
l-20 44 21 28 c40 54 -9 101 -107 101 l-32 0 1 -120z m99 83 c24 -22 23 -49
-4 -67 -43 -30 -58 -21 -58 34 0 45 2 50 22 50 12 0 30 -7 40 -17z"/>
<path d="M215 745 l0 -115 73 0 c68 0 72 1 72 22 0 17 -3 19 -12 10 -7 -7 -32
-12 -56 -12 l-43 0 3 105 c3 99 2 105 -17 105 -19 0 -20 -7 -20 -115z"/>
<path d="M390 745 c0 -108 1 -115 20 -115 19 0 20 7 20 115 0 108 -1 115 -20
115 -19 0 -20 -7 -20 -115z"/>
<path d="M1233 745 c-28 -64 -46 -115 -40 -115 7 0 19 15 27 33 11 23 21 31
35 29 91 -12 95 -14 95 -38 0 -19 5 -24 26 -24 14 0 24 4 22 9 -25 70 -96 221
-103 221 -6 0 -34 -52 -62 -115z m96 -38 c1 -7 -78 0 -87 8 -1 1 8 24 20 51
l21 49 23 -50 c13 -27 23 -54 23 -58z"/>
<path d="M1920 763 c-23 -54 -46 -102 -51 -107 -13 -15 -11 -26 5 -26 8 0 17
13 21 29 7 35 26 44 61 31 14 -6 36 -10 50 -10 19 0 24 -5 24 -25 0 -20 5 -25
25 -25 14 0 25 1 25 3 0 14 -99 222 -107 224 -6 2 -30 -40 -53 -94z m86 -61
c-3 -2 -23 -1 -46 3 -45 8 -46 14 -12 80 l15 29 24 -53 c13 -30 21 -56 19 -59z"/>
<path d="M3355 745 c0 -108 1 -115 20 -115 19 0 20 7 20 115 0 108 -1 115 -20
115 -19 0 -20 -7 -20 -115z"/>
</g>
</svg>
