<svg width="61" height="60" viewBox="0 0 61 60" fill="none" xmlns="http://www.w3.org/2000/svg">
<path d="M11.2201 50.1974C12.0549 50.3467 12.8999 50.5161 13.7428 50.6956C15.2231 51.0108 16.7167 51.2357 18.2196 51.4092C19.3493 51.5396 20.4747 51.6461 21.6163 51.5691C25.0318 51.3386 27.0186 49.7387 28.1598 46.3314C28.3352 45.8077 28.444 45.2613 28.6018 44.6555C29.009 45.3237 29.3367 45.9762 29.768 46.5489C31.369 48.6748 33.3384 50.2852 36.0277 50.7338C37.11 50.9144 38.2178 50.9159 39.3194 50.8529C40.1233 50.807 40.9297 50.7977 41.7338 50.782C43.2326 50.7529 44.6894 50.4418 46.1603 50.2222C47.6201 50.0042 49.0595 49.6751 50.5332 49.3795C50.1808 49.9245 49.6601 50.3221 49.1672 50.7389C46.1437 53.2957 42.7506 55.1693 38.9717 56.3216C37.1012 56.892 35.1936 57.2556 33.2496 57.451C31.9509 57.5814 30.6498 57.6308 29.3504 57.5704C25.5844 57.3954 21.9633 56.5745 18.514 55.009C15.8926 53.8191 13.5114 52.2569 11.3412 50.359C11.2976 50.3209 11.2664 50.268 11.2201 50.1974Z" fill="#4B6586"/>
<path d="M50.5778 49.3893C50.5662 49.3369 50.6049 49.3322 50.6658 49.3313C50.6559 49.3511 50.6261 49.3705 50.5778 49.3893Z" fill="#4B6586"/>
<path d="M21.6191 16.3275C21.0962 14.7216 20.9317 13.1099 21.1861 11.464C21.6915 8.19375 23.4868 5.86368 26.3676 4.38848C27.7874 3.66145 29.3358 3.47562 30.9243 3.59761C32.8492 3.74542 34.5315 4.44449 35.9103 5.81777C37.066 6.9689 37.6545 8.41574 37.8869 10.0139C38.2078 12.2208 37.5595 14.1409 36.1312 15.8119C33.985 18.323 29.6141 17.9683 27.9755 15.1516C27.0842 13.6195 27.4539 11.5238 28.8409 10.4325C29.4513 9.9522 30.1367 9.66783 30.9134 10.0656C31.5439 10.3884 31.7394 10.9482 31.4427 11.5906C31.273 11.958 31.0651 12.3071 30.8912 12.6726C30.6255 13.2312 30.7587 13.6319 31.294 13.9387C32.1813 14.4472 33.1408 14.2746 33.7701 13.4644C34.793 12.1476 34.9307 10.6818 34.3044 9.17687C33.6797 7.67601 32.437 7.04352 30.8782 6.90572C29.6196 6.79445 28.4231 6.95204 27.3088 7.5693C25.0127 8.84133 23.8383 11.4836 24.3464 14.0861C24.8917 16.8789 26.6746 18.5528 29.163 19.5617C31.3296 20.4401 33.5853 20.5994 35.8913 20.2394C37.3625 20.0098 38.8388 19.7548 40.3371 19.853C43.8152 20.0809 46.646 21.4718 48.4119 24.6314C49.2893 26.2015 49.6052 27.9319 49.5818 29.736C49.5603 31.3966 49.117 32.9253 48.2253 34.3042C46.8487 36.4332 44.8818 37.7375 42.4032 38.073C39.9716 38.4022 37.7074 37.8374 35.9614 35.9851C34.4909 34.425 33.7242 32.5409 33.9926 30.3309C34.4494 26.5705 38.3551 25.3192 40.6116 26.1088C42.3107 26.7033 43.3683 28.5091 43.016 30.2508C42.8988 30.8305 42.6182 31.3286 42.1057 31.6512C41.3558 32.1233 40.4845 31.7785 40.2561 30.9225C40.1517 30.5313 40.085 30.1292 39.9696 29.7416C39.8061 29.1925 39.5089 29.0368 38.9528 29.1078C37.8071 29.2541 37.135 30.2054 37.3124 31.4525C37.7169 34.2973 40.9771 36.0792 43.8214 34.158C44.9801 33.3754 45.8073 32.2961 46.1545 30.9218C47.0265 27.4714 45.2714 23.9392 41.3621 23.2371C38.5249 22.7275 35.9659 23.455 33.6509 25.1091C32.549 25.8964 31.8869 27.0595 31.3126 28.2672C31.1491 28.611 31.0203 28.9725 30.8455 29.3099C30.4639 30.0466 30.4671 30.8789 30.2491 31.6561C29.2028 35.387 26.7617 37.6756 23.1007 38.6512C20.9576 39.2223 18.8206 39.0687 16.7753 38.1986C14.1041 37.0621 12.4339 35.0671 11.8623 32.1562C11.4105 29.8555 11.7648 27.7409 13.1534 25.8332C15.1373 23.1076 18.9876 22.1629 21.9684 23.6835C23.4318 24.43 24.2155 25.6699 24.4759 27.2859C24.6706 28.495 24.5229 29.6364 23.9126 30.7062C22.898 32.4849 20.4617 33.0592 18.7801 31.9132C18.2935 31.5816 17.9519 31.1291 17.9393 30.5329C17.9235 29.7846 18.3302 29.2597 19.2892 29.3042C19.6558 29.3212 20.0222 29.3409 20.389 29.3388C21.0159 29.3352 21.264 29.1033 21.3348 28.4736C21.4455 27.4904 20.9604 26.7441 20.0225 26.4548C18.1009 25.862 15.9643 26.8448 15.1843 28.7025C14.6653 29.9386 14.8461 31.1792 15.34 32.3591C16.1704 34.3428 17.7088 35.4546 19.8043 35.7282C22.0969 36.0276 24.0825 35.3426 25.6989 33.6507C26.7758 32.5235 27.4217 31.1778 27.592 29.6158C27.9553 26.2848 26.9437 23.408 24.7709 20.9107C23.9044 19.9149 23.0025 18.9452 22.3104 17.8073C22.031 17.3481 21.7977 16.8662 21.6191 16.3275Z" fill="#4B6586"/>
<path d="M43.7557 46.7144C44.4398 46.9784 45.1098 47.1975 45.7842 47.4116C44.9211 47.4969 44.0675 47.4057 43.2201 47.2911C41.4914 47.0574 39.8085 46.6398 38.2305 45.864C35.9159 44.726 34.1991 43.042 33.4779 40.4711C33.2555 39.6784 33.2087 38.8526 33.0833 38.0416C32.8186 36.3288 32.7268 34.6025 32.7344 32.8518C32.8947 33.3225 33.0568 33.7927 33.215 34.2642C33.6618 35.5953 34.0292 36.9602 34.5685 38.2519C35.7798 41.1532 37.8378 43.3428 40.4389 45.0327C41.4771 45.7072 42.5791 46.2555 43.7557 46.7144Z" fill="#4B6586"/>
<path d="M33.3894 44.2513C34.9434 46.287 36.9191 47.7261 39.2033 48.8013C39.0976 48.8013 38.9912 48.8093 38.8866 48.799C38.7814 48.7886 38.6784 48.758 38.5739 48.7395C36.3906 48.3524 34.339 47.6401 32.6126 46.1791C30.9208 44.7475 29.9921 42.9217 29.9439 40.6698C29.9079 38.9827 29.9586 37.2969 30.0319 35.6117C30.0454 35.302 30.0815 34.9933 30.1083 34.6692C30.2179 34.7377 30.2063 34.8513 30.2253 34.9566C30.4837 36.3833 30.7159 37.8158 31.0126 39.2344C31.3999 41.0863 32.2486 42.7286 33.3894 44.2513Z" fill="#4B6586"/>
<path d="M25.8533 41.8013C26.6715 40.2257 27.161 38.5665 27.4749 36.8472C27.7028 38.8784 27.6148 40.8837 27.0077 42.8315C26.1742 45.5059 24.5336 47.3468 21.7143 47.9604C20.168 48.2969 18.6197 48.6168 17.0607 48.8852C17.0391 48.8889 17.0149 48.8772 16.9225 48.859C17.7074 48.4894 18.4396 48.1413 19.1745 47.7992C20.3657 47.2447 21.5759 46.735 22.5986 45.8649C23.9382 44.7252 25.0264 43.39 25.8533 41.8013Z" fill="#4B6586"/>
</svg>
