<svg width="359" height="391" viewBox="0 0 359 391" fill="none" xmlns="http://www.w3.org/2000/svg">
<path d="M246.509 79.3254C221.901 75.3857 193.877 73.2835 164.692 73.2835C137.982 73.2835 112.249 75.0415 89.2188 78.3564C89.2242 78.0016 89.2293 77.6468 89.245 77.292C89.8556 56.6985 98.4718 37.1614 113.252 22.8566C128.032 8.55168 147.804 0.613892 168.341 0.739755C188.878 0.865619 208.552 9.04516 223.157 23.5301C237.762 38.0151 246.139 57.6563 246.499 78.2558C246.504 78.6159 246.509 78.9706 246.509 79.3254Z" fill="#CCCF31"/>
<g opacity="0.1">
<path d="M178.18 0.710758C167.257 -0.769303 156.146 0.0695524 145.567 3.17295C134.988 6.27635 125.177 11.575 116.77 18.7256C108.362 25.8762 101.547 34.7191 96.7645 44.6812C91.9822 54.6432 89.3398 65.5022 89.0087 76.5543C88.9927 76.9091 88.9876 77.2639 88.9824 77.6186C95.8244 76.6338 102.91 75.7899 110.184 75.0852C111.073 56.6729 118.361 39.1541 130.781 25.5687C143.202 11.9833 159.971 3.18858 178.18 0.710758Z" fill="#0B0B0B"/>
</g>
<path d="M280.915 85.5846C269.587 82.504 258.097 80.0573 246.498 78.2559C227.488 75.3007 208.323 73.4531 189.099 72.7224C181.092 72.3941 172.936 72.2246 164.691 72.2246C158.156 72.2246 151.674 72.3305 145.282 72.5423C126.53 73.0981 107.823 74.6838 89.2446 77.2922C75.4917 79.1919 61.8723 81.9616 48.4677 85.5846C17.2133 94.253 0 105.871 0 118.294C0 130.716 17.2133 142.334 48.4677 151.002C70.4477 157.103 97.5478 161.259 127.076 163.166C139.264 163.96 151.864 164.362 164.691 164.362C177.56 164.362 190.203 163.955 202.428 163.16C229.301 161.418 254.163 157.812 274.971 152.57C275.082 152.538 275.187 152.512 275.298 152.485C276.702 152.136 278.085 151.77 279.453 151.405C279.943 151.267 280.429 151.135 280.915 151.002C280.942 150.991 280.97 150.982 280.999 150.976C281.464 150.849 281.923 150.716 282.382 150.589C283.301 150.325 284.208 150.065 285.1 149.795C285.143 149.785 285.18 149.774 285.217 149.763C285.992 149.53 286.753 149.297 287.507 149.064C288.125 148.868 288.737 148.678 289.344 148.482C289.788 148.339 290.226 148.196 290.659 148.053C290.976 147.947 291.287 147.846 291.593 147.741C292.01 147.603 292.427 147.46 292.839 147.317C293.013 147.259 293.187 147.2 293.356 147.137C293.752 147.004 294.137 146.867 294.523 146.729C294.94 146.581 295.357 146.427 295.768 146.279C296.112 146.157 296.455 146.03 296.792 145.903C297.077 145.792 297.357 145.686 297.642 145.58C298.418 145.289 299.179 144.987 299.928 144.69C300.303 144.537 300.678 144.389 301.047 144.235C301.411 144.087 301.781 143.933 302.14 143.78C302.731 143.531 303.311 143.282 303.882 143.033C304.156 142.906 304.436 142.784 304.705 142.668C304.911 142.572 305.112 142.482 305.317 142.387C305.465 142.324 305.613 142.255 305.756 142.186C306.289 141.942 306.817 141.693 307.334 141.444C309.319 140.491 311.171 139.517 312.892 138.522C323.687 132.321 329.382 125.442 329.382 118.294C329.382 105.871 312.169 94.253 280.915 85.5846ZM280.63 149.986C258.623 156.091 231.449 160.248 201.842 162.138C189.801 162.906 177.355 163.303 164.691 163.303C152.07 163.303 139.665 162.912 127.662 162.144C98.007 160.259 70.7907 156.102 48.7527 149.986C17.9946 141.45 1.05571 130.197 1.05571 118.294C1.05743 117.242 1.18867 116.194 1.44645 115.175C4.13831 104.436 20.6972 94.3853 48.7527 86.6013C62.056 83.0065 75.5711 80.2528 89.2183 78.3565C107.909 75.7333 126.729 74.1424 145.593 73.5908C151.886 73.3843 158.252 73.2819 164.691 73.2837C172.826 73.2837 180.87 73.4478 188.777 73.7655C208.113 74.4897 227.389 76.3462 246.509 79.3256C258.007 81.119 269.398 83.5479 280.63 86.6013C308.68 94.3853 325.233 104.43 327.931 115.164C328.193 116.186 328.326 117.238 328.327 118.294C328.327 130.197 311.388 141.45 280.63 149.986Z" fill="#0B0B0B"/>
<path d="M329.081 118.775C329.081 125.85 323.269 132.543 312.891 138.522C311.165 139.517 309.307 140.491 307.333 141.445C306.815 141.693 306.288 141.942 305.755 142.186C305.612 142.255 305.464 142.324 305.316 142.387C305.111 142.482 304.91 142.572 304.704 142.668C304.435 142.784 304.155 142.906 303.881 143.033C303.31 143.282 302.73 143.531 302.139 143.78C301.78 143.933 301.41 144.087 301.046 144.235C300.677 144.389 300.302 144.537 299.927 144.691C299.178 144.987 298.417 145.289 297.641 145.58C297.356 145.686 297.076 145.792 296.791 145.903C296.454 146.03 296.111 146.157 295.767 146.279C295.356 146.427 294.939 146.581 294.522 146.729C294.136 146.867 293.751 147.005 293.355 147.137C293.186 147.201 293.012 147.259 292.838 147.317C292.426 147.46 292.009 147.603 291.592 147.741C291.286 147.847 290.975 147.947 290.658 148.053C290.225 148.196 289.787 148.339 289.343 148.482C288.736 148.678 288.124 148.869 287.506 149.064C286.752 149.297 285.991 149.53 285.216 149.763C285.179 149.774 285.142 149.785 285.099 149.795C284.207 150.065 283.3 150.325 282.381 150.589C281.922 150.717 281.463 150.849 280.998 150.976C280.969 150.982 280.941 150.991 280.914 151.003C280.428 151.135 279.942 151.267 279.451 151.405C278.09 151.765 276.701 152.13 275.297 152.485C275.186 152.512 275.081 152.538 274.97 152.57C254.727 157.643 229.891 161.339 202.406 163.123C190.365 163.902 177.813 164.315 164.917 164.315C151.906 164.315 139.247 163.897 127.112 163.102C54.669 158.363 0.753906 140.317 0.753906 118.775C0.75961 117.465 0.958771 116.162 1.34491 114.91C1.37661 115 1.40831 115.085 1.44543 115.175C8.97769 135.021 62.434 151.061 131.794 154.974C142.42 155.578 153.426 155.89 164.69 155.89C176.002 155.89 187.05 155.572 197.718 154.969C267.02 151.04 320.424 134.995 327.93 115.164C328.057 114.846 328.167 114.529 328.262 114.211C328.797 115.673 329.074 117.218 329.081 118.775Z" fill="#0B0B0B"/>
<path d="M48.3873 113.076C39.6023 113.076 30.2656 111.18 30.2656 107.665C30.2656 104.151 39.6024 102.255 48.3873 102.255C57.1722 102.255 66.509 104.151 66.509 107.665C66.509 111.18 57.1722 113.076 48.3873 113.076ZM48.3873 103.314C38.33 103.314 31.3213 105.608 31.3213 107.665C31.3213 109.723 38.3301 112.016 48.3873 112.016C58.4445 112.016 65.4533 109.723 65.4533 107.665C65.4533 105.608 58.4445 103.314 48.3873 103.314Z" fill="#0B0B0B"/>
<path d="M85.8677 137.963C77.0828 137.963 67.7461 136.067 67.7461 132.553C67.7461 129.039 77.0828 127.143 85.8677 127.143C94.6527 127.143 103.989 129.039 103.989 132.553C103.989 136.067 94.6527 137.963 85.8677 137.963ZM85.8677 128.202C75.8105 128.202 68.8018 130.495 68.8018 132.553C68.8018 134.611 75.8105 136.904 85.8677 136.904C95.9249 136.904 102.934 134.611 102.934 132.553C102.934 130.495 95.9249 128.202 85.8677 128.202Z" fill="#0B0B0B"/>
<path d="M280.643 113.076C271.858 113.076 262.521 111.18 262.521 107.665C262.521 104.151 271.858 102.255 280.643 102.255C289.428 102.255 298.765 104.151 298.765 107.665C298.765 111.18 289.428 113.076 280.643 113.076ZM280.643 103.314C270.586 103.314 263.577 105.608 263.577 107.665C263.577 109.723 270.586 112.016 280.643 112.016C290.7 112.016 297.709 109.723 297.709 107.665C297.709 105.608 290.7 103.314 280.643 103.314Z" fill="#0B0B0B"/>
<path d="M243.168 137.963C234.384 137.963 225.047 136.067 225.047 132.553C225.047 129.039 234.384 127.143 243.168 127.143C251.953 127.143 261.29 129.039 261.29 132.553C261.29 136.067 251.953 137.963 243.168 137.963ZM243.168 128.202C233.111 128.202 226.103 130.495 226.103 132.553C226.103 134.611 233.111 136.904 243.168 136.904C253.226 136.904 260.235 134.611 260.235 132.553C260.235 130.495 253.226 128.202 243.168 128.202Z" fill="#0B0B0B"/>
<path d="M164.516 149.613C155.731 149.613 146.395 147.717 146.395 144.203C146.395 140.688 155.731 138.792 164.516 138.792C173.301 138.792 182.638 140.688 182.638 144.203C182.638 147.717 173.301 149.613 164.516 149.613ZM164.516 139.852C154.459 139.852 147.45 142.145 147.45 144.203C147.45 146.26 154.459 148.554 164.516 148.554C174.573 148.554 181.582 146.26 181.582 144.203C181.582 142.145 174.573 139.852 164.516 139.852Z" fill="#0B0B0B"/>
<path d="M177.876 260.907C190.123 260.907 200.052 250.947 200.052 238.661C200.052 226.374 190.123 216.414 177.876 216.414C165.628 216.414 155.699 226.374 155.699 238.661C155.699 250.947 165.628 260.907 177.876 260.907Z" fill="#2F2E41"/>
<path d="M169.443 253.277L158.65 258.699L161.667 264.742L172.46 259.32L169.443 253.277Z" fill="#2F2E41"/>
<path d="M163.09 264.128C163.73 263.154 162.15 260.977 159.562 259.265C156.973 257.552 154.356 256.954 153.716 257.928C153.076 258.901 154.655 261.079 157.244 262.791C159.832 264.503 162.45 265.102 163.09 264.128Z" fill="#2F2E41"/>
<path d="M186.308 253.277L183.291 259.32L194.084 264.742L197.101 258.699L186.308 253.277Z" fill="#2F2E41"/>
<path d="M198.509 262.791C201.098 261.079 202.677 258.902 202.037 257.928C201.397 256.954 198.78 257.553 196.191 259.265C193.602 260.977 192.023 263.155 192.663 264.128C193.303 265.102 195.92 264.504 198.509 262.791Z" fill="#2F2E41"/>
<path d="M176.323 240.822C180.509 240.822 183.903 237.418 183.903 233.219C183.903 229.02 180.509 225.616 176.323 225.616C172.138 225.616 168.744 229.02 168.744 233.219C168.744 237.418 172.138 240.822 176.323 240.822Z" fill="white"/>
<path d="M178.167 231.761C179.149 230.775 179.144 229.172 178.154 228.179C177.165 227.187 175.566 227.181 174.584 228.167C173.601 229.152 173.607 230.756 174.596 231.748C175.586 232.741 177.184 232.747 178.167 231.761Z" fill="#3F3D56"/>
<path d="M195.37 214.458C195.704 206.222 188.628 199.246 179.566 198.877C170.504 198.508 162.887 204.885 162.554 213.121C162.22 221.357 168.519 223.228 177.582 223.598C186.644 223.967 195.037 222.694 195.37 214.458Z" fill="#E4E59E"/>
<path d="M208.153 250.309C209.611 249.053 207.56 244.256 203.571 239.595C199.582 234.934 195.166 232.173 193.708 233.43C192.249 234.686 194.3 239.483 198.289 244.144C202.278 248.805 206.694 251.566 208.153 250.309Z" fill="#2F2E41"/>
<path d="M157.524 244.144C161.513 239.483 163.565 234.686 162.106 233.43C160.647 232.174 156.231 234.934 152.242 239.595C148.253 244.256 146.202 249.054 147.661 250.31C149.119 251.566 153.536 248.806 157.524 244.144Z" fill="#2F2E41"/>
<path d="M183.968 247.428C184.208 248.751 183.914 250.115 183.152 251.22C182.389 252.326 181.22 253.082 179.902 253.323C178.583 253.564 177.223 253.269 176.121 252.504C175.019 251.739 174.265 250.566 174.025 249.244L174.024 249.234C173.527 246.479 175.65 245.504 178.396 245.006C181.142 244.507 183.471 244.673 183.968 247.428Z" fill="white"/>
<path d="M140.409 262.325C140.129 262.325 139.861 262.213 139.663 262.015C139.465 261.816 139.354 261.547 139.354 261.266V198.782C139.354 198.501 139.465 198.231 139.663 198.033C139.861 197.834 140.129 197.723 140.409 197.723C140.689 197.723 140.958 197.834 141.156 198.033C141.354 198.231 141.465 198.501 141.465 198.782V261.266C141.465 261.547 141.354 261.816 141.156 262.015C140.958 262.213 140.689 262.325 140.409 262.325Z" fill="#E5E5E4"/>
<path d="M124.575 318.455C124.295 318.455 124.027 318.343 123.829 318.145C123.631 317.946 123.52 317.677 123.52 317.396V271.856C123.52 271.576 123.631 271.306 123.829 271.108C124.027 270.909 124.295 270.797 124.575 270.797C124.855 270.797 125.124 270.909 125.322 271.108C125.52 271.306 125.631 271.576 125.631 271.856V317.396C125.631 317.677 125.52 317.946 125.322 318.145C125.124 318.343 124.855 318.455 124.575 318.455Z" fill="#E5E5E4"/>
<path d="M165.218 280.858C164.938 280.858 164.669 280.747 164.471 280.548C164.273 280.349 164.162 280.08 164.162 279.799V217.315C164.162 217.034 164.273 216.765 164.471 216.566C164.669 216.367 164.938 216.256 165.218 216.256C165.498 216.256 165.766 216.367 165.964 216.566C166.162 216.765 166.274 217.034 166.274 217.315V279.799C166.274 280.08 166.162 280.349 165.964 280.548C165.766 280.747 165.498 280.858 165.218 280.858Z" fill="#E5E5E4"/>
<path d="M149.911 325.868C149.631 325.868 149.363 325.756 149.165 325.558C148.967 325.359 148.855 325.09 148.855 324.809V299.392C148.855 299.111 148.967 298.841 149.165 298.643C149.363 298.444 149.631 298.333 149.911 298.333C150.191 298.333 150.46 298.444 150.658 298.643C150.856 298.841 150.967 299.111 150.967 299.392V324.809C150.967 325.09 150.856 325.359 150.658 325.558C150.46 325.756 150.191 325.868 149.911 325.868Z" fill="#E5E5E4"/>
<path d="M171.552 195.604C171.272 195.604 171.003 195.493 170.805 195.294C170.607 195.095 170.496 194.826 170.496 194.545V169.128C170.496 168.847 170.607 168.578 170.805 168.379C171.003 168.18 171.272 168.069 171.552 168.069C171.832 168.069 172.1 168.18 172.298 168.379C172.496 168.578 172.608 168.847 172.608 169.128V194.545C172.608 194.826 172.496 195.095 172.298 195.294C172.1 195.493 171.832 195.604 171.552 195.604Z" fill="#E5E5E4"/>
<path d="M118.767 206.725C118.487 206.725 118.218 206.613 118.02 206.415C117.822 206.216 117.711 205.947 117.711 205.666V180.249C117.711 179.968 117.822 179.698 118.02 179.5C118.218 179.301 118.487 179.189 118.767 179.189C119.047 179.189 119.315 179.301 119.513 179.5C119.711 179.698 119.822 179.968 119.822 180.249V205.666C119.822 205.947 119.711 206.216 119.513 206.415C119.315 206.613 119.047 206.725 118.767 206.725Z" fill="#E5E5E4"/>
<path d="M210.614 209.372C210.334 209.372 210.066 209.261 209.868 209.062C209.67 208.864 209.559 208.594 209.559 208.313V182.896C209.559 182.615 209.67 182.346 209.868 182.147C210.066 181.948 210.334 181.837 210.614 181.837C210.894 181.837 211.163 181.948 211.361 182.147C211.559 182.346 211.67 182.615 211.67 182.896V208.313C211.67 208.594 211.559 208.864 211.361 209.062C211.163 209.261 210.894 209.372 210.614 209.372Z" fill="#E5E5E4"/>
<path d="M208.503 288.801C208.223 288.801 207.954 288.69 207.756 288.491C207.559 288.293 207.447 288.023 207.447 287.742V257.03C207.447 256.749 207.558 256.479 207.756 256.281C207.954 256.082 208.223 255.971 208.503 255.971C208.783 255.971 209.051 256.082 209.249 256.281C209.447 256.479 209.559 256.749 209.559 257.03V287.742C209.559 288.023 209.447 288.293 209.249 288.491C209.051 288.69 208.783 288.801 208.503 288.801Z" fill="#E5E5E4"/>
<path d="M187.388 315.807C187.108 315.807 186.839 315.695 186.641 315.497C186.443 315.298 186.332 315.029 186.332 314.748V269.208C186.332 268.928 186.443 268.658 186.641 268.46C186.839 268.261 187.108 268.149 187.388 268.149C187.668 268.149 187.936 268.261 188.134 268.46C188.332 268.658 188.443 268.928 188.443 269.208V314.748C188.443 315.029 188.332 315.298 188.134 315.497C187.936 315.695 187.668 315.807 187.388 315.807Z" fill="#E5E5E4"/>
<path d="M191.61 237.967C191.33 237.967 191.062 237.855 190.864 237.656C190.666 237.458 190.555 237.188 190.555 236.908V174.423C190.555 174.142 190.666 173.873 190.864 173.674C191.062 173.476 191.33 173.364 191.61 173.364C191.89 173.364 192.159 173.476 192.357 173.674C192.555 173.873 192.666 174.142 192.666 174.423V236.908C192.666 237.188 192.555 237.458 192.357 237.656C192.159 237.855 191.89 237.967 191.61 237.967Z" fill="#CCCCCC"/>
<path d="M321.039 370.929C322.55 369.66 320.508 364.717 316.478 359.889C312.448 355.06 307.956 352.175 306.445 353.444C304.934 354.713 306.976 359.656 311.006 364.485C315.036 369.313 319.528 372.199 321.039 370.929Z" fill="#2F2E41"/>
<path d="M311.129 365.439C315.099 353.49 308.662 340.575 296.751 336.592C284.84 332.609 271.966 339.067 267.996 351.015C264.025 362.964 270.462 375.879 282.373 379.862C294.284 383.845 307.159 377.387 311.129 365.439Z" fill="#2F2E41"/>
<path d="M299.186 376.125H292.279V388.538H299.186V376.125Z" fill="#2F2E41"/>
<path d="M285.371 376.125H278.465V388.538H285.371V376.125Z" fill="#2F2E41"/>
<path d="M293.429 390.847C296.608 390.847 299.184 389.877 299.184 388.682C299.184 387.486 296.608 386.517 293.429 386.517C290.251 386.517 287.674 387.486 287.674 388.682C287.674 389.877 290.251 390.847 293.429 390.847Z" fill="#2F2E41"/>
<path d="M279.615 390.559C282.793 390.559 285.37 389.589 285.37 388.394C285.37 387.198 282.793 386.229 279.615 386.229C276.436 386.229 273.859 387.198 273.859 388.394C273.859 389.589 276.436 390.559 279.615 390.559Z" fill="#2F2E41"/>
<path d="M282.423 329.56C284.453 321.359 293.413 316.533 302.437 318.781C311.46 321.029 317.129 329.499 315.099 337.7C313.069 345.9 306.335 345.927 297.311 343.679C288.288 341.431 280.393 337.761 282.423 329.56Z" fill="#E4E59E"/>
<path d="M274.228 352.532C275.072 350.745 271.159 347.11 265.487 344.411C259.815 341.712 254.532 340.973 253.687 342.759C252.843 344.545 256.756 348.181 262.428 350.88C268.1 353.578 273.383 354.318 274.228 352.532Z" fill="#2F2E41"/>
<path d="M286.163 361.018C290.349 361.018 293.743 357.614 293.743 353.415C293.743 349.216 290.349 345.812 286.163 345.812C281.977 345.812 278.584 349.216 278.584 353.415C278.584 357.614 281.977 361.018 286.163 361.018Z" fill="white"/>
<path d="M283.048 353.224C284.443 353.224 285.574 352.089 285.574 350.689C285.574 349.289 284.443 348.155 283.048 348.155C281.653 348.155 280.521 349.289 280.521 350.689C280.521 352.089 281.653 353.224 283.048 353.224Z" fill="#3F3D56"/>
<path d="M286.099 372.466C287.848 372.466 289.266 371.044 289.266 369.289C289.266 367.534 287.848 366.112 286.099 366.112C284.35 366.112 282.932 367.534 282.932 369.289C282.932 371.044 284.35 372.466 286.099 372.466Z" fill="white"/>
<path d="M354.471 391H229.897C229.757 391 229.623 390.944 229.524 390.845C229.425 390.746 229.369 390.611 229.369 390.47C229.369 390.33 229.425 390.195 229.524 390.096C229.623 389.997 229.757 389.941 229.897 389.941H354.471C354.611 389.941 354.745 389.997 354.844 390.096C354.943 390.195 354.999 390.33 354.999 390.47C354.999 390.611 354.943 390.746 354.844 390.845C354.745 390.944 354.611 391 354.471 391Z" fill="#0B0B0B"/>
</svg>
