<svg width="774" height="483" viewBox="0 0 774 483" fill="none" xmlns="http://www.w3.org/2000/svg">
<g clip-path="url(#clip0_163_118)">
<path d="M202.284 294.361C283.608 294.361 349.534 228.466 349.534 147.18C349.534 65.8948 283.608 0 202.284 0C120.961 0 55.0348 65.8948 55.0348 147.18C55.0348 228.466 120.961 294.361 202.284 294.361Z" fill="#F2F2F2"/>
<path d="M0 35.3387C0 88.8888 33.6103 132.221 75.1462 132.221Z" fill="#2F2E41"/>
<path d="M75.1462 132.221C75.1462 78.0691 112.653 34.2502 159.005 34.2502Z" fill="#6C63FF"/>
<path d="M27.2269 40.1931C27.2269 91.06 48.6596 132.221 75.1462 132.221Z" fill="#6C63FF"/>
<path d="M75.1462 132.221C75.1462 63.0269 118.499 7.03607 172.074 7.03607Z" fill="#2F2E41"/>
<path d="M59.3374 132.904C59.3374 132.904 69.9944 132.576 73.2061 130.29C76.4179 128.004 89.5992 125.274 90.396 128.94C91.1927 132.607 106.411 147.174 94.3797 147.271C82.3481 147.368 66.4235 145.398 63.2179 143.446C60.0124 141.495 59.3374 132.904 59.3374 132.904Z" fill="#A8A8A8"/>
<path opacity="0.2" d="M94.5945 145.995C82.5628 146.092 66.6382 144.122 63.4327 142.17C60.9915 140.684 60.0187 135.351 59.6932 132.89C59.4678 132.9 59.3374 132.904 59.3374 132.904C59.3374 132.904 60.0124 141.495 63.218 143.446C66.4235 145.398 82.3481 147.368 94.3798 147.271C97.8528 147.243 99.0525 146.008 98.9866 144.179C98.5041 145.284 97.1795 145.974 94.5945 145.995Z" fill="black"/>
<path d="M137.301 310.903C208.698 310.903 266.576 303.032 266.576 293.324C266.576 283.616 208.698 275.745 137.301 275.745C65.9041 275.745 8.02551 283.616 8.02551 293.324C8.02551 303.032 65.9041 310.903 137.301 310.903Z" fill="#3F3D56"/>
<path opacity="0.1" d="M137.301 308.083C197.244 308.083 245.837 301.475 245.837 293.324C245.837 285.173 197.244 278.565 137.301 278.565C77.3582 278.565 28.7649 285.173 28.7649 293.324C28.7649 301.475 77.3582 308.083 137.301 308.083Z" fill="black"/>
<path d="M578.359 483C686.408 483 774 471.089 774 456.397C774 441.705 686.408 429.794 578.359 429.794C470.309 429.794 382.717 441.705 382.717 456.397C382.717 471.089 470.309 483 578.359 483Z" fill="#3F3D56"/>
<path d="M214.728 462.013C279.634 462.013 332.251 454.858 332.251 446.032C332.251 437.206 279.634 430.052 214.728 430.052C149.822 430.052 97.2048 437.206 97.2048 446.032C97.2048 454.858 149.822 462.013 214.728 462.013Z" fill="#3F3D56"/>
<path d="M319.808 432.558C382.026 448.451 501.623 411.828 514.758 370.369" stroke="#2F2E41" stroke-width="2" stroke-miterlimit="10"/>
<path d="M214.037 178.966C214.037 178.966 303.907 154.09 309.438 234.245C314.968 314.399 235.467 337.202 297.686 353.094" stroke="#2F2E41" stroke-width="2" stroke-miterlimit="10"/>
<path d="M127.209 371.256C127.209 371.256 154.221 363.779 155.883 387.87C157.545 411.961 133.651 418.815 152.351 423.591" stroke="#2F2E41" stroke-width="2" stroke-miterlimit="10"/>
<path d="M538.328 389.191L532.883 423.945C532.883 423.945 506.072 438.181 524.923 438.6C543.774 439.018 632.584 438.6 632.584 438.6C632.584 438.6 649.759 438.6 622.53 423.526L617.084 387.098L538.328 389.191Z" fill="#2F2E41"/>
<path opacity="0.1" d="M521.131 438.223C525.412 434.415 532.883 430.448 532.883 430.448L538.328 395.694L617.084 395.768L622.53 430.029C628.879 433.544 632.813 436.239 635.114 438.306C638.611 437.508 642.433 434.544 622.53 423.526L617.084 387.098L538.328 389.191L532.883 423.945C532.883 423.945 510.354 435.909 521.131 438.223Z" fill="black"/>
<path d="M742.221 146.965H412.353C405.463 146.965 399.878 152.548 399.878 159.434V381.537C399.878 388.424 405.463 394.007 412.353 394.007H742.221C749.111 394.007 754.696 388.424 754.696 381.537V159.434C754.696 152.548 749.111 146.965 742.221 146.965Z" fill="#2F2E41"/>
<path d="M742.757 160.155H411.817V345.226H742.757V160.155Z" fill="#3F3D56"/>
<path d="M577.287 156.386C578.444 156.386 579.382 155.449 579.382 154.293C579.382 153.136 578.444 152.199 577.287 152.199C576.13 152.199 575.193 153.136 575.193 154.293C575.193 155.449 576.13 156.386 577.287 156.386Z" fill="#F2F2F2"/>
<path d="M754.696 359.881V381.537C754.697 383.175 754.374 384.796 753.747 386.309C753.12 387.822 752.201 389.197 751.043 390.355C749.885 391.513 748.509 392.431 746.996 393.058C745.482 393.685 743.86 394.007 742.221 394.007H412.353C410.715 394.007 409.093 393.685 407.579 393.058C406.065 392.431 404.69 391.513 403.531 390.355C402.373 389.197 401.454 387.822 400.827 386.309C400.2 384.796 399.878 383.175 399.878 381.537V359.881H754.696Z" fill="#2F2E41"/>
<path d="M669.867 461.21V465.398H444.492V462.048L444.802 461.21L450.357 446.136H665.259L669.867 461.21Z" fill="#2F2E41"/>
<path d="M756.598 457.111C756.188 458.866 754.638 460.716 751.136 462.467C738.568 468.747 713.015 460.792 713.015 460.792C713.015 460.792 693.326 457.442 693.326 448.649C693.879 448.271 694.455 447.928 695.052 447.623C700.336 444.829 717.854 437.935 748.917 447.915C751.206 448.633 753.25 449.972 754.822 451.783C756.081 453.256 757.068 455.124 756.598 457.111Z" fill="#2F2E41"/>
<path opacity="0.1" d="M756.598 457.111C741.216 463.003 727.505 463.442 713.434 453.674C706.337 448.749 699.89 447.531 695.052 447.623C700.335 444.829 717.854 437.935 748.917 447.915C751.206 448.633 753.25 449.972 754.822 451.783C756.081 453.255 757.067 455.124 756.598 457.111Z" fill="black"/>
<path d="M737.312 453.674C740.319 453.674 742.757 452.924 742.757 451.999C742.757 451.074 740.319 450.324 737.312 450.324C734.304 450.324 731.866 451.074 731.866 451.999C731.866 452.924 734.304 453.674 737.312 453.674Z" fill="#F2F2F2"/>
<path d="M577.287 385.004C581.683 385.004 585.247 381.443 585.247 377.049C585.247 372.655 581.683 369.093 577.287 369.093C572.891 369.093 569.328 372.655 569.328 377.049C569.328 381.443 572.891 385.004 577.287 385.004Z" fill="#F2F2F2"/>
<path opacity="0.1" d="M669.867 461.21V465.398H444.492V462.048L444.802 461.21H669.867Z" fill="black"/>
<path d="M218.876 109.867H75.0829V277.086H218.876V109.867Z" fill="#2F2E41"/>
<path d="M233.393 93.2833H60.5653V152.708H233.393V93.2833Z" fill="#3F3D56"/>
<path d="M233.393 163.764H60.5653V223.189H233.393V163.764Z" fill="#3F3D56"/>
<path d="M233.393 234.245H60.5653V293.67H233.393V234.245Z" fill="#3F3D56"/>
<path opacity="0.4" d="M198.828 103.648H187.767V114.704H198.828V103.648Z" fill="#6C63FF"/>
<path opacity="0.8" d="M214.728 103.648H203.667V114.704H214.728V103.648Z" fill="#6C63FF"/>
<path d="M230.628 103.648H219.567V114.704H230.628V103.648Z" fill="#6C63FF"/>
<path opacity="0.4" d="M198.828 173.438H187.767V184.494H198.828V173.438Z" fill="#6C63FF"/>
<path opacity="0.8" d="M214.728 173.438H203.667V184.494H214.728V173.438Z" fill="#6C63FF"/>
<path d="M230.628 173.438H219.567V184.494H230.628V173.438Z" fill="#6C63FF"/>
<path opacity="0.4" d="M198.828 243.227H187.767V254.283H198.828V243.227Z" fill="#6C63FF"/>
<path opacity="0.8" d="M214.728 243.227H203.667V254.283H214.728V243.227Z" fill="#6C63FF"/>
<path d="M230.628 243.227H219.567V254.283H230.628V243.227Z" fill="#6C63FF"/>
<path d="M218.876 426.339C249.038 426.339 273.49 401.899 273.49 371.751C273.49 341.603 249.038 317.163 218.876 317.163C188.714 317.163 164.262 341.603 164.262 371.751C164.262 401.899 188.714 426.339 218.876 426.339Z" fill="#2F2E41"/>
<path d="M210.58 414.592H193.989V444.305H210.58V414.592Z" fill="#2F2E41"/>
<path d="M243.763 414.592H227.172V444.305H243.763V414.592Z" fill="#2F2E41"/>
<path d="M207.815 449.833C215.451 449.833 221.641 447.512 221.641 444.65C221.641 441.788 215.451 439.468 207.815 439.468C200.179 439.468 193.989 441.788 193.989 444.65C193.989 447.512 200.179 449.833 207.815 449.833Z" fill="#2F2E41"/>
<path d="M240.998 449.142C248.634 449.142 254.824 446.821 254.824 443.959C254.824 441.097 248.634 438.777 240.998 438.777C233.362 438.777 227.172 441.097 227.172 443.959C227.172 446.821 233.362 449.142 240.998 449.142Z" fill="#2F2E41"/>
<path d="M220.258 376.588C230.567 376.588 238.924 368.235 238.924 357.931C238.924 347.628 230.567 339.275 220.258 339.275C209.95 339.275 201.593 347.628 201.593 357.931C201.593 368.235 209.95 376.588 220.258 376.588Z" fill="white"/>
<path d="M220.259 364.15C223.695 364.15 226.48 361.366 226.48 357.931C226.48 354.497 223.695 351.712 220.259 351.712C216.822 351.712 214.037 354.497 214.037 357.931C214.037 361.366 216.822 364.15 220.259 364.15Z" fill="#3F3D56"/>
<path d="M165.899 320.986C161.489 301.246 175.585 281.3 197.384 276.435C219.182 271.569 240.429 283.628 244.838 303.368C249.248 323.107 234.801 330.388 213.003 335.253C191.204 340.118 170.309 340.726 165.899 320.986Z" fill="#6C63FF"/>
<path d="M270.098 360.864C283.963 354.932 293.692 346.597 291.829 342.247C289.966 337.896 277.217 339.178 263.352 345.109C249.488 351.04 239.758 359.376 241.621 363.726C243.484 368.076 256.234 366.795 270.098 360.864Z" fill="#2F2E41"/>
<path d="M167.784 397.486C181.649 391.555 191.378 383.22 189.515 378.869C187.652 374.519 174.902 375.8 161.038 381.731C147.173 387.663 137.444 395.998 139.307 400.348C141.17 404.699 153.919 403.417 167.784 397.486Z" fill="#2F2E41"/>
<path d="M250.676 387.644C250.676 392.987 236.913 403.537 221.641 403.537C206.369 403.537 191.915 393.678 191.915 388.335C191.915 382.992 206.369 384.189 221.641 384.189C236.913 384.189 250.676 382.301 250.676 387.644Z" fill="white"/>
</g>
<defs>
<clipPath id="clip0_163_118">
<rect width="774" height="483" fill="white"/>
</clipPath>
</defs>
</svg>
